<svg width="115" height="48" viewBox="0 0 115 48" fill="none" xmlns="http://www.w3.org/2000/svg">
<g id="CATO LOGO 2019-svg 1" clip-path="url(#clip0_2593_15875)">
<g id="Group">
<path id="Vector" d="M45.8634 0.826172H44.5879L31.2402 34.2403H32.3181H32.6954H35.9649L38.2285 28.1144H51.8456L54.1092 34.2403H57.3787H57.5763H58.8338L45.8634 0.826172ZM50.3546 24.0185H39.7375L45.2346 10.3115L50.3546 24.0185Z" fill="#158864"/>
<path id="Vector_2" d="M56.2832 0.84375V1.68809V2.11924V4.93968H65.8943V34.2399H68.9842H69.3794H70.3315V4.93968H79.9426V2.11924V1.49048V0.84375H56.2832Z" fill="#158864"/>
<g id="Group_2">
<path id="Vector_3" d="M11.1924 46.0081L9.16239 42.002H7.83301V47.4632H8.87495V43.511L10.905 47.4632H12.2343V42.002H11.1924V46.0081Z" fill="#158864"/>
<path id="Vector_4" d="M21.5218 42.002H21.1445V47.4811H21.5218H22.2224H24.989V46.4751H22.2224V45.2535H24.5398V44.2475H22.2224V42.99H24.989V42.002H22.2224H21.5218Z" fill="#158864"/>
<path id="Vector_5" d="M33.8818 42.99H35.4448V47.4811H36.5226V42.99H38.0855V42.002H33.8818V42.99Z" fill="#158864"/>
<path id="Vector_6" d="M51.9184 45.6488L50.8225 42.002H49.9423L48.8464 45.6488L48.1099 42.002H46.9961L48.3255 47.4811H49.3315L50.4094 43.6367L51.4154 47.4811H52.4394L53.7687 42.002H52.6549L51.9184 45.6488Z" fill="#158864"/>
<path id="Vector_7" d="M65.8588 42.1812C65.5355 42.0195 65.1762 41.9297 64.763 41.9297C64.3498 41.9297 63.9725 42.0195 63.6672 42.1812C63.3438 42.3429 63.1102 42.5764 62.9306 42.8818C62.751 43.1872 62.6611 43.5465 62.6611 43.9417V45.4867C62.6611 45.8819 62.751 46.2412 62.9306 46.5466C63.1102 46.852 63.3438 47.0855 63.6672 47.2472C63.9905 47.4089 64.3498 47.4987 64.763 47.4987C65.1762 47.4987 65.5534 47.4089 65.8588 47.2472C66.1822 47.0855 66.4157 46.852 66.5954 46.5466C66.775 46.2412 66.8649 45.8819 66.8649 45.4867V43.9417C66.8649 43.5465 66.775 43.1872 66.5954 42.8818C66.4337 42.5944 66.1822 42.3608 65.8588 42.1812ZM65.7331 45.5406C65.7331 45.7382 65.6972 45.8999 65.6073 46.0436C65.5355 46.1873 65.4097 46.2951 65.266 46.3849C65.1223 46.4568 64.9426 46.5107 64.745 46.5107C64.5474 46.5107 64.3857 46.4747 64.2241 46.3849C64.0803 46.3131 63.9546 46.1873 63.8827 46.0436C63.8109 45.8999 63.757 45.7382 63.757 45.5406V43.9417C63.757 43.7441 63.7929 43.5824 63.8827 43.4387C63.9546 43.295 64.0803 43.1872 64.2241 43.0974C64.3678 43.0255 64.5474 42.9716 64.745 42.9716C64.9426 42.9716 65.1043 43.0076 65.266 43.0974C65.4097 43.1692 65.5355 43.295 65.6073 43.4387C65.6792 43.5824 65.7331 43.7441 65.7331 43.9417V45.5406Z" fill="#158864"/>
<path id="Vector_8" d="M79.1162 45.0739C79.3498 44.9302 79.5474 44.7505 79.6731 44.499C79.7989 44.2475 79.8707 43.9601 79.8707 43.6367C79.8707 43.3134 79.7989 43.0259 79.6731 42.7744C79.5474 42.5229 79.3498 42.3433 79.1162 42.1996C78.8827 42.0558 78.5952 42.002 78.2898 42.002H76.8527H76.188H75.7568V47.4811H76.8347V45.2715H77.4994L78.7929 47.4811H80.1043L78.739 45.2176C78.8647 45.1817 78.9905 45.1278 79.1162 45.0739ZM76.8527 42.99H78.2C78.3078 42.99 78.4156 43.008 78.4875 43.0619C78.5593 43.1158 78.6312 43.1876 78.6851 43.2954C78.739 43.3852 78.7569 43.511 78.7569 43.6367C78.7569 43.7625 78.739 43.8703 78.6851 43.9781C78.6312 44.0679 78.5773 44.1577 78.4875 44.2116C78.3976 44.2655 78.3078 44.2835 78.2 44.2835H76.8527V42.99Z" fill="#158864"/>
<path id="Vector_9" d="M93.3262 42.002H91.9608L90.0925 44.7146V42.002H89.0146V47.4811H90.0925V46.2955L90.9189 45.1997L92.2842 47.4811H93.5597L91.6195 44.2655L93.3262 42.002Z" fill="#158864"/>
<path id="Vector_10" d="M106.566 44.9837C106.405 44.7681 106.207 44.6064 105.955 44.5166C105.704 44.4268 105.416 44.3369 105.039 44.2651C105.021 44.2651 105.003 44.2651 104.985 44.2471C104.967 44.2471 104.949 44.2471 104.931 44.2292C104.913 44.2292 104.913 44.2292 104.896 44.2292C104.878 44.2292 104.878 44.2292 104.86 44.2292C104.608 44.1753 104.41 44.1393 104.267 44.0854C104.123 44.0495 104.015 43.9777 103.907 43.8878C103.818 43.798 103.764 43.6723 103.764 43.5106C103.764 43.3309 103.854 43.1692 104.033 43.0794C104.213 42.9716 104.464 42.9177 104.806 42.9177C105.021 42.9177 105.255 42.9537 105.506 43.0435C105.74 43.1154 105.973 43.2411 106.207 43.3848L106.656 42.5046C106.476 42.3788 106.279 42.289 106.063 42.1992C105.866 42.1093 105.65 42.0554 105.434 42.0015C105.219 41.9477 105.003 41.9297 104.806 41.9297C104.357 41.9297 103.979 42.0015 103.656 42.1273C103.333 42.2531 103.099 42.4507 102.937 42.7022C102.776 42.9537 102.686 43.2591 102.686 43.6184C102.686 44.0136 102.776 44.319 102.955 44.5525C103.135 44.7681 103.351 44.9298 103.602 45.0016C103.854 45.0915 104.177 45.1633 104.554 45.2172L104.644 45.2352H104.662H104.68C104.896 45.2711 105.075 45.307 105.219 45.343C105.363 45.3789 105.47 45.4507 105.56 45.5226C105.65 45.6124 105.686 45.7202 105.686 45.8639C105.686 46.0795 105.596 46.2412 105.399 46.349C105.201 46.4568 104.931 46.5286 104.572 46.5286C104.267 46.5286 103.961 46.4747 103.674 46.3849C103.386 46.2951 103.135 46.1514 102.901 45.9897L102.398 46.834C102.578 46.9777 102.794 47.1035 103.009 47.1933C103.243 47.3011 103.494 47.373 103.746 47.4269C104.015 47.4807 104.141 47.4987 104.141 47.4987C104.141 47.4987 104.285 47.4987 104.554 47.4987C105.021 47.4987 105.416 47.4269 105.74 47.3011C106.063 47.1753 106.315 46.9777 106.494 46.7262C106.674 46.4747 106.746 46.1873 106.746 45.828C106.818 45.4867 106.728 45.1992 106.566 44.9837Z" fill="#158864"/>
</g>
<g id="Group_3">
<path id="Vector_11" d="M97.6738 0C88.2244 0 80.5176 7.54513 80.5176 17.2101C80.5176 26.875 88.0627 34.2405 97.4941 34.2405C106.943 34.2405 114.65 26.6954 114.65 17.0304C114.65 7.49123 107.105 0 97.6738 0ZM97.6738 29.929C90.5957 29.929 85.1345 24.4857 85.1345 17.0304C85.1345 9.95238 90.4879 4.3115 97.4941 4.3115C104.572 4.3115 110.033 9.75477 110.033 17.2101C110.015 24.342 104.662 29.929 97.6738 29.929Z" fill="#158864"/>
<path id="Vector_12" d="M26.1564 26.0487C23.9288 28.4559 20.7671 29.929 17.1741 29.929C10.0961 29.929 4.63486 24.4857 4.63486 17.0304C4.63486 9.95238 9.98831 4.3115 16.9945 4.3115C20.6593 4.3115 23.8929 5.76663 26.1564 8.20982L29.3002 5.04805C26.2283 1.92221 21.9348 0 17.1562 0C7.70681 0 0 7.54513 0 17.2101C0 26.875 7.54513 34.2405 16.9765 34.2405C21.7731 34.2405 26.1205 32.3003 29.2284 29.1206L26.1564 26.0487Z" fill="#158864"/>
</g>
</g>
</g>
<defs>
<clipPath id="clip0_2593_15875">
<rect width="114.65" height="47.4984" fill="white"/>
</clipPath>
</defs>
</svg>
