<svg width="193" height="31" viewBox="0 0 193 31" fill="none" xmlns="http://www.w3.org/2000/svg">
<g id="Group 1774">
<g id="Layer_2">
<g id="Group">
<path id="Vector" d="M51.4844 8.81445H54.5566V21.465H61.6048V23.9951H51.4844V8.81445Z" fill="#158864"/>
<path id="Vector_2" d="M61.9668 18.3925C61.9668 15.1395 64.1355 12.6094 67.3884 12.6094C70.8222 12.6094 72.8101 15.3202 72.8101 19.1154H64.8583C65.0391 20.7419 65.9427 21.8262 67.5692 21.8262C68.6535 21.8262 69.3764 21.284 69.7378 20.5611H72.6294C72.2679 22.5491 70.4607 24.1756 67.7499 24.1756C63.9547 24.1756 61.9668 21.6455 61.9668 18.3925ZM64.8583 17.3081H69.5571C69.5571 15.8624 68.6535 14.9588 67.3884 14.9588C65.762 14.9588 65.0391 15.8624 64.8583 17.3081Z" fill="#158864"/>
<path id="Vector_3" d="M80.0374 22.7307C79.4952 23.6343 78.5916 24.1765 76.7844 24.1765C74.6158 24.1765 72.9893 23.0922 72.9893 20.9235C72.9893 18.5741 74.9772 17.8512 77.3266 17.4898C79.1338 17.3091 80.0374 17.1283 80.0374 16.2247C80.0374 15.5018 79.4952 14.9597 78.2302 14.9597C76.7844 14.9597 76.2422 15.5018 76.0615 16.4054H73.5314C73.5314 14.4175 74.9772 12.791 78.2302 12.791C81.4832 12.791 82.7482 14.2368 82.7482 16.7669V22.3693C82.7482 23.2729 82.9289 23.6343 83.1097 23.815V23.9958H80.3988C80.2181 23.6343 80.0374 23.2729 80.0374 22.7307ZM80.0374 20.0199V18.3934C79.4952 18.7548 78.7724 18.9356 78.0495 19.1163C76.6037 19.4777 75.8808 19.8392 75.8808 20.7428C75.8808 21.6464 76.6037 22.1885 77.5073 22.1885C79.1338 22.1885 80.0374 21.1042 80.0374 20.0199Z" fill="#158864"/>
<path id="Vector_4" d="M86.9061 14.776C87.629 13.5109 88.3519 12.9688 89.617 12.9688C89.9784 12.9688 90.1591 12.9688 90.3399 12.9688V15.4989C88.5326 15.3181 87.0869 16.2217 87.0869 18.5711V23.9928H84.1953V13.1495H86.9061V14.776Z" fill="#158864"/>
<path id="Vector_5" d="M93.955 14.5982C94.6779 13.5139 95.7622 12.791 97.208 12.791C99.3766 12.791 101.003 14.4175 101.003 16.7669V23.9958H98.1116V17.3091C98.1116 16.2247 97.3887 15.3211 96.3043 15.3211C95.0393 15.3211 94.1357 16.4054 94.1357 17.8512V23.9958H91.2441V13.1525H94.1357V14.5982H93.955Z" fill="#158864"/>
<path id="Vector_6" d="M102.449 8.81445H105.341V11.3446H102.449V8.81445ZM102.449 12.9711H105.341V23.8144H102.449V12.9711Z" fill="#158864"/>
<path id="Vector_7" d="M109.497 14.5982C110.22 13.5139 111.304 12.791 112.75 12.791C115.099 12.791 116.545 14.4175 116.545 16.7669V23.9958H113.654V17.3091C113.654 16.2247 112.931 15.3211 111.846 15.3211C110.581 15.3211 109.678 16.4054 109.678 17.8512V23.9958H106.786V13.1525H109.678V14.5982H109.497Z" fill="#158864"/>
<path id="Vector_8" d="M117.628 24.1756H120.52C120.7 24.8984 121.423 25.4406 122.688 25.4406C124.315 25.4406 125.038 24.7177 125.038 23.0912V21.8262C124.315 22.5491 123.592 23.0912 122.146 23.0912C119.797 23.0912 117.447 21.1033 117.447 17.8503C117.447 14.5973 119.435 12.6094 122.146 12.6094C123.592 12.6094 124.495 13.1515 125.218 14.0551V12.9708H127.929V23.0912C127.929 24.537 127.387 25.6213 126.664 26.3442C125.76 27.2478 124.315 27.6093 122.688 27.6093C119.797 27.6093 117.989 26.3442 117.628 24.1756ZM125.218 18.031C125.218 16.4045 124.315 15.1395 122.688 15.1395C121.242 15.1395 120.339 16.2238 120.339 18.031C120.339 19.8382 121.242 20.9226 122.869 20.9226C124.495 20.9226 125.218 19.6575 125.218 18.031Z" fill="#158864"/>
<path id="Vector_9" d="M132.088 16.4049C132.088 11.8868 134.799 8.45312 139.317 8.45312C143.112 8.45312 145.281 10.6218 145.642 13.5133H142.57C142.208 12.0676 141.124 10.9832 139.317 10.9832C136.606 10.9832 135.16 13.3326 135.16 16.4049C135.16 19.4771 136.787 21.6458 139.317 21.6458C141.124 21.6458 142.389 20.5615 142.57 18.935H145.642C145.642 20.2 144.919 21.6458 144.016 22.5494C142.931 23.453 141.485 24.1759 139.497 24.1759C135.16 24.1759 132.088 20.9229 132.088 16.4049Z" fill="#158864"/>
<path id="Vector_10" d="M146.183 18.3925C146.183 15.1395 148.351 12.6094 151.604 12.6094C155.038 12.6094 157.026 15.3202 157.026 19.1154H149.074C149.255 20.7419 150.158 21.8262 151.785 21.8262C152.869 21.8262 153.592 21.284 153.954 20.5611H156.845C156.484 22.5491 154.677 24.1756 151.966 24.1756C148.171 24.1756 146.183 21.6455 146.183 18.3925ZM149.074 17.3081H153.954C153.954 15.8624 152.869 14.9588 151.604 14.9588C149.978 14.9588 149.255 15.8624 149.074 17.3081Z" fill="#158864"/>
<path id="Vector_11" d="M160.641 14.5982C161.363 13.5139 162.448 12.791 163.893 12.791C166.062 12.791 167.689 14.4175 167.689 16.7669V23.9958H164.797V17.3091C164.797 16.2247 164.074 15.3211 162.99 15.3211C161.725 15.3211 160.821 16.4054 160.821 17.8512V23.9958H157.93V13.1525H160.821V14.5982H160.641Z" fill="#158864"/>
<path id="Vector_12" d="M168.231 12.9717H169.677V9.71875H172.569V13.1525H174.376V14.9597H172.569V20.7428C172.569 21.4657 172.93 21.8271 173.653 21.8271C174.015 21.8271 174.557 21.8271 174.557 21.8271V23.9958C174.557 23.9958 173.834 23.9958 172.749 23.9958C171.304 23.9958 169.858 23.4536 169.858 21.4657V14.9597H168.412V12.9717H168.231Z" fill="#158864"/>
<path id="Vector_13" d="M174.737 18.3925C174.737 15.1395 176.906 12.6094 180.159 12.6094C183.593 12.6094 185.581 15.3202 185.581 19.1154H177.629C177.81 20.7419 178.713 21.8262 180.34 21.8262C181.424 21.8262 182.147 21.284 182.508 20.5611H185.4C185.038 22.5491 183.231 24.1756 180.52 24.1756C176.725 24.1756 174.737 21.6455 174.737 18.3925ZM177.629 17.3081H182.508C182.508 15.8624 181.424 14.9588 180.159 14.9588C178.713 14.9588 177.81 15.8624 177.629 17.3081Z" fill="#158864"/>
<path id="Vector_14" d="M189.195 14.776C189.918 13.5109 190.641 12.9688 191.906 12.9688C192.267 12.9688 192.448 12.9688 192.629 12.9688V15.4989C190.822 15.3181 189.376 16.2217 189.376 18.5711V23.9928H186.484V13.1495H189.195V14.776Z" fill="#158864"/>
</g>
<path id="Vector_15" d="M35.5811 12.2461H35.7618L35.5811 12.4268V12.2461Z" fill="#158864"/>
<path id="Vector_16" d="M38.1112 15.4987V11.3421L35.5811 10.4385V10.2578H40.0991V14.7759L38.1112 15.4987Z" fill="#158864"/>
<g id="Group_2">
<path id="Vector_17" d="M29.798 18.9343C29.798 20.9222 29.0752 22.7294 27.6294 23.9945C26.3643 25.2595 24.5571 26.1632 22.5692 26.1632C21.4848 26.1632 20.5812 25.9824 19.6776 25.621C18.774 25.2595 18.0511 24.7174 17.3282 23.9945C16.0632 22.7294 15.3403 20.9222 15.3403 18.9343V18.5728L10.8223 16.7656V18.7536C10.8223 22.0066 12.0873 24.8981 14.256 27.0668C16.4246 29.2354 19.3162 30.5005 22.5692 30.5005C24.1957 30.5005 25.6414 30.139 27.0872 29.5969C28.533 29.0547 29.798 28.1511 30.8824 27.0668C33.051 24.8981 34.3161 22.0066 34.3161 18.7536V16.9463L29.798 18.7536V18.9343Z" fill="#158864"/>
<path id="Vector_18" d="M42.2681 8.27103L22.5694 0.5L0.882812 8.99392L10.8225 12.9698L15.3405 14.5963L22.5694 17.4878L23.473 17.1264L29.7983 14.777L34.3163 12.9698L35.5814 12.4276L35.7621 12.2469H35.5814L29.6176 9.89753L22.5694 12.7891L13.1719 8.99392L22.5694 5.37949L32.1477 8.99392L35.5814 10.4397L38.1115 11.3433V15.4999L40.0994 14.777L41.1837 14.2348V10.259L44.256 8.99392L42.2681 8.27103Z" fill="#158864"/>
</g>
</g>
</g>
</svg>
