<svg width="30" height="31" viewBox="0 0 30 31" fill="none" xmlns="http://www.w3.org/2000/svg">
<g clip-path="url(#clip0_2593_16191)">
<path d="M17.625 10.375L26.25 19C27 19.75 27 20.75 26.25 21.5C25.5 22.25 24.5 22.25 23.75 21.5L21 18.75" stroke="#4C6372" stroke-width="2" stroke-miterlimit="10"/>
<path d="M23.75 21.5C24.5 22.25 24.5 23.25 23.75 24C23 24.75 22 24.75 21.25 24L18.5 21.25" stroke="#4C6372" stroke-width="2" stroke-miterlimit="10"/>
<path d="M21.25 24C22 24.75 22 25.75 21.25 26.5C20.5 27.25 19.5 27.25 18.75 26.5L16 23.75" stroke="#4C6372" stroke-width="2" stroke-miterlimit="10"/>
<path d="M18.75 26.5C19.5 27.25 19.5 28.25 18.75 29C18 29.75 17 29.75 16.25 29L13.5 26.25" stroke="#4C6372" stroke-width="2" stroke-miterlimit="10"/>
<path d="M9.75 27.625C10.375 28.25 11.5 28.25 12.25 27.625L15.625 24.25C16.25 23.625 16.25 22.5 15.625 21.75C15 21.125 13.875 21.125 13.125 21.75L9.75 25.125C9 25.875 9 27 9.75 27.625Z" stroke="#4C6372" stroke-width="2" stroke-miterlimit="10"/>
<path d="M7.25 25.25C7.875 25.875 9 25.875 9.75 25.25L13.125 21.875C13.75 21.25 13.75 20.125 13.125 19.375C12.5 18.75 11.375 18.75 10.625 19.375L7.25 22.75C6.625 23.375 6.625 24.5 7.25 25.25Z" stroke="#4C6372" stroke-width="2" stroke-miterlimit="10"/>
<path d="M4.75009 22.75C5.37509 23.375 6.50009 23.375 7.25009 22.75L10.7501 19.25C11.3751 18.625 11.3751 17.5 10.7501 16.75C10.1251 16.125 9.00009 16.125 8.25009 16.75L4.87509 20.125C4.12509 21 4.12509 22 4.75009 22.75Z" stroke="#4C6372" stroke-width="2" stroke-miterlimit="10"/>
<path d="M2.375 20.25C3 20.875 4.125 20.875 4.875 20.25L8.25 16.875C8.875 16.25 8.875 15.125 8.25 14.375C7.625 13.75 6.5 13.75 5.75 14.375L2.375 17.75C1.625 18.5 1.625 19.625 2.375 20.25Z" stroke="#4C6372" stroke-width="2" stroke-miterlimit="10"/>
<path d="M30 1.5H0" stroke="#4C6372" stroke-width="2" stroke-miterlimit="10"/>
<path d="M30 16.5H26L24.875 17.625" stroke="#4C6372" stroke-width="2" stroke-miterlimit="10"/>
<path d="M17.625 1.5C15.875 1.5 14.25 2.125 13 3.375L6.625 9.875C8.375 11.625 11.125 11.625 12.875 9.875L13.875 8.875C16.375 11.375 20.5 11.375 23 8.875L23.5 8.375" stroke="#4C6372" stroke-width="2" stroke-miterlimit="10"/>
<path d="M2.75 17.375V15.375H0" stroke="#4C6372" stroke-width="2" stroke-miterlimit="10"/>
</g>
<defs>
<clipPath id="clip0_2593_16191">
<rect width="30" height="30" fill="white" transform="translate(0 0.5)"/>
</clipPath>
</defs>
</svg>
