<svg width="101" height="78" viewBox="0 0 101 78" fill="none" xmlns="http://www.w3.org/2000/svg">
<g clip-path="url(#clip0_2593_16024)">
<path d="M58.05 64.1464H26.0346C25.8 64.1464 25.5655 64.2637 25.3309 64.3809L15.3628 71.4173C14.5418 72.0037 13.4864 71.4173 13.4864 70.4791V65.4364C13.4864 64.7328 13.0173 64.2637 12.3137 64.2637H7.8573C7.15366 64.2637 6.68457 63.7946 6.68457 63.0909V33.1864C6.68457 32.4828 7.15366 32.0137 7.8573 32.0137H58.05C58.7537 32.0137 59.2227 32.4828 59.2227 33.1864V62.9737C59.2227 63.6773 58.7537 64.1464 58.05 64.1464Z" stroke="#222C33" stroke-miterlimit="10" stroke-linecap="round" stroke-linejoin="round"/>
<path d="M46.4395 32.0136V14.4227C46.4395 13.7191 47.0258 13.25 47.6122 13.25H97.8049C98.5085 13.25 98.9776 13.7191 98.9776 14.4227V44.21C98.9776 44.9136 98.5085 45.3827 97.8049 45.3827H93.2313C92.5276 45.3827 92.0585 45.9691 92.0585 46.5555V54.8818C92.0585 55.9373 90.7685 56.4064 90.0649 55.7027L80.3313 45.7345C80.0967 45.5 79.8622 45.3827 79.5104 45.3827H59.2222" stroke="#222C33" stroke-miterlimit="10" stroke-linecap="round" stroke-linejoin="round"/>
<path d="M73.8818 45.3828L87.8373 59.3383" stroke="#222C33" stroke-miterlimit="10" stroke-linecap="round" stroke-linejoin="round"/>
<path d="M94.5219 73.0591L67.0801 45.5" stroke="#222C33" stroke-miterlimit="10" stroke-linecap="round" stroke-linejoin="round"/>
<path d="M71.0666 56.5256L68.1348 53.5938" stroke="#222C33" stroke-miterlimit="10" stroke-linecap="round" stroke-linejoin="round"/>
<path d="M64.969 50.427L52.5381 37.9961" stroke="#222C33" stroke-miterlimit="10" stroke-linecap="round" stroke-linejoin="round"/>
<path d="M28.8486 19.9355L47.6123 38.6992" stroke="#222C33" stroke-miterlimit="10" stroke-linecap="round" stroke-linejoin="round"/>
<path d="M33.7739 31.7796L6.33203 4.45508" stroke="#222C33" stroke-miterlimit="10" stroke-linecap="round" stroke-linejoin="round"/>
<path d="M26.738 31.779L16.418 21.459" stroke="#222C33" stroke-miterlimit="10" stroke-linecap="round" stroke-linejoin="round"/>
<path d="M13.3687 18.4107L9.96777 15.0098" stroke="#222C33" stroke-miterlimit="10" stroke-linecap="round" stroke-linejoin="round"/>
<path d="M5.04238 4.9246C6.07867 4.9246 6.91874 4.08453 6.91874 3.04824C6.91874 2.01195 6.07867 1.17188 5.04238 1.17188C4.00609 1.17188 3.16602 2.01195 3.16602 3.04824C3.16602 4.08453 4.00609 4.9246 5.04238 4.9246Z" fill="#222C33" stroke="#222C33" stroke-miterlimit="10" stroke-linecap="round" stroke-linejoin="round"/>
<path d="M95.9291 76.2273C96.9654 76.2273 97.8055 75.3873 97.8055 74.351C97.8055 73.3147 96.9654 72.4746 95.9291 72.4746C94.8928 72.4746 94.0527 73.3147 94.0527 74.351C94.0527 75.3873 94.8928 76.2273 95.9291 76.2273Z" fill="#222C33" stroke="#222C33" stroke-miterlimit="10" stroke-linecap="round" stroke-linejoin="round"/>
<path d="M18.8804 43.3906L20.2876 46.3224L23.5713 46.7915L21.2258 49.137L21.8122 52.3034L18.8804 50.7788L15.9485 52.3034L16.5349 49.137L14.1895 46.7915L17.4731 46.3224L18.8804 43.3906Z" fill="#158864" stroke="#222C33" stroke-miterlimit="10" stroke-linecap="round" stroke-linejoin="round"/>
<path d="M32.9532 51.9513C35.2201 51.9513 37.0577 50.1136 37.0577 47.8467C37.0577 45.5799 35.2201 43.7422 32.9532 43.7422C30.6863 43.7422 28.8486 45.5799 28.8486 47.8467C28.8486 50.1136 30.6863 51.9513 32.9532 51.9513Z" fill="#FDCA0B" stroke="#222C33" stroke-miterlimit="10" stroke-linecap="round" stroke-linejoin="round"/>
<path d="M47.026 43.7422L42.2178 51.9513H51.7169L47.026 43.7422Z" fill="#158864" stroke="#222C33" stroke-miterlimit="10" stroke-linecap="round" stroke-linejoin="round"/>
<path d="M87.6022 40.5754C89.5452 40.5754 91.1203 39.0003 91.1203 37.0572C91.1203 35.1142 89.5452 33.5391 87.6022 33.5391C85.6591 33.5391 84.084 35.1142 84.084 37.0572C84.084 39.0003 85.6591 40.5754 87.6022 40.5754Z" fill="#158864" stroke="#222C33" stroke-miterlimit="10" stroke-linecap="round" stroke-linejoin="round"/>
<path d="M14.8932 22.1634C16.1238 22.1634 17.1214 21.1658 17.1214 19.9352C17.1214 18.7046 16.1238 17.707 14.8932 17.707C13.6626 17.707 12.665 18.7046 12.665 19.9352C12.665 21.1658 13.6626 22.1634 14.8932 22.1634Z" fill="#FDCA0B" stroke="#222C33" stroke-miterlimit="10" stroke-linecap="round" stroke-linejoin="round"/>
<path d="M66.4928 54.179C67.7234 54.179 68.721 53.1814 68.721 51.9508C68.721 50.7202 67.7234 49.7227 66.4928 49.7227C65.2622 49.7227 64.2646 50.7202 64.2646 51.9508C64.2646 53.1814 65.2622 54.179 66.4928 54.179Z" fill="#158864" stroke="#222C33" stroke-miterlimit="10" stroke-linecap="round" stroke-linejoin="round"/>
<path d="M68.1348 19.3496L64.0303 26.386H72.2394L68.1348 19.3496Z" fill="#FDCA0B" stroke="#222C33" stroke-miterlimit="10" stroke-linecap="round" stroke-linejoin="round"/>
<path d="M58.401 26.3861H53.1237C52.6546 26.3861 52.1855 26.0342 52.1855 25.4479V20.1706C52.1855 19.7015 52.5374 19.2324 53.1237 19.2324H58.401C58.8701 19.2324 59.3392 19.5842 59.3392 20.1706V25.4479C59.2219 26.0342 58.8701 26.3861 58.401 26.3861Z" fill="#158864" stroke="#222C33" stroke-miterlimit="10" stroke-linecap="round" stroke-linejoin="round"/>
</g>
<defs>
<clipPath id="clip0_2593_16024">
<rect width="100.855" height="77.4" fill="white"/>
</clipPath>
</defs>
</svg>
