<svg width="104" height="80" viewBox="0 0 104 80" fill="none" xmlns="http://www.w3.org/2000/svg">
<g clip-path="url(#clip0_2593_15939)">
<path d="M60.9494 23.3398V27.5724H56.7168L60.9494 23.3398Z" fill="white"/>
<path d="M60.9493 18.9855L52.3633 27.5715H48.0098L60.1028 15.4785C60.2237 15.5994 60.2237 15.7204 60.3447 15.9622C60.7074 16.9297 60.9493 17.8971 60.9493 18.9855Z" fill="white"/>
<path d="M58.1679 12.939L43.5353 27.5715H42.9307V23.7017L55.2655 11.6087L55.3865 11.125C56.4748 11.6087 57.4423 12.2134 58.1679 12.939Z" fill="white"/>
<path d="M52.0006 10.4004L43.0518 19.3492C43.0518 18.1399 43.2936 16.9306 43.7773 15.8423C45.1076 12.6981 48.2518 10.4004 52.0006 10.4004Z" fill="white"/>
<path d="M43.5355 27.5723H47.889H52.2425H56.5959H60.9494V35.7955C60.9494 40.7537 56.9587 44.7444 52.0006 44.7444C47.0425 44.7444 43.0518 40.7537 43.0518 35.7955V27.5723H43.5355Z" fill="#FDCA0B"/>
<path d="M52.0006 60.4648C56.1122 60.4648 59.982 61.6741 63.1262 63.8509C59.7401 65.423 55.9913 66.2695 52.0006 66.2695C48.0099 66.2695 44.261 65.423 40.875 63.8509C44.0192 61.7951 47.889 60.4648 52.0006 60.4648Z" fill="#158864"/>
<path d="M52.0004 78.6043C73.3725 78.6043 90.6981 61.2788 90.6981 39.9067C90.6981 18.5345 73.3725 1.20898 52.0004 1.20898C30.6283 1.20898 13.3027 18.5345 13.3027 39.9067C13.3027 61.2788 30.6283 78.6043 52.0004 78.6043Z" stroke="#222C33" stroke-miterlimit="10"/>
<path d="M62.8844 15.8418C72.0751 19.9534 78.4844 29.1441 78.4844 39.9069C78.4844 50.5488 72.196 59.6185 63.2472 63.8511C59.8611 65.4232 56.1123 66.2697 52.1216 66.2697C48.1309 66.2697 44.382 65.4232 40.996 63.8511C31.9262 59.6185 25.7588 50.5488 25.7588 39.9069C25.7588 29.1441 32.1681 19.9534 41.3588 15.8418" stroke="#222C33" stroke-miterlimit="10" stroke-linecap="round" stroke-linejoin="round"/>
<path d="M66.1492 35.7949C66.1492 43.5345 59.8609 49.9438 52.0004 49.9438C44.2609 49.9438 37.8516 43.6554 37.8516 35.7949" stroke="#222C33" stroke-miterlimit="10" stroke-linecap="round" stroke-linejoin="round"/>
<path d="M60.9494 27.5725V35.7957C60.9494 40.7539 56.9587 44.7446 52.0006 44.7446C47.0425 44.7446 43.0518 40.7539 43.0518 35.7957V27.5725V23.7027V19.3492C43.0518 18.1399 43.2936 16.9306 43.7773 15.8423C45.1076 12.5771 48.3727 10.4004 52.0006 10.4004C53.2099 10.4004 54.4192 10.6423 55.3866 11.005C56.475 11.4888 57.4425 12.0934 58.168 12.819L58.289 12.9399C59.0146 13.6655 59.6192 14.3911 59.982 15.3585C60.1029 15.4795 60.1029 15.6004 60.2239 15.8423C60.5866 16.8097 60.8285 17.7771 60.9494 18.8655C60.9494 18.9864 60.9494 19.2283 60.9494 19.3492V23.219V27.5725Z" stroke="#222C33" stroke-miterlimit="10" stroke-linecap="round" stroke-linejoin="round"/>
<path d="M52 60.4643V49.9434" stroke="#222C33" stroke-miterlimit="10" stroke-linecap="round" stroke-linejoin="round"/>
<path d="M63.1262 63.8509C59.982 61.6741 56.1122 60.4648 52.0006 60.4648C47.889 60.4648 44.0192 61.6741 40.875 63.8509" stroke="#222C33" stroke-miterlimit="10" stroke-linecap="round" stroke-linejoin="round"/>
<path d="M43.0518 27.5723H43.5355H47.889H52.3634H56.7169H60.9494" stroke="#222C33" stroke-miterlimit="10"/>
<path d="M52.0006 10.4004L43.0518 19.4702" stroke="#222C33" stroke-miterlimit="10" stroke-linecap="round" stroke-linejoin="round"/>
<path d="M55.2657 11.6094L43.0518 23.8233" stroke="#222C33" stroke-miterlimit="10"/>
<path d="M58.168 12.9395L43.5355 27.572L43.0518 28.1767" stroke="#222C33" stroke-miterlimit="10" stroke-linecap="round" stroke-linejoin="round"/>
<path d="M60.1026 15.4785L47.8887 27.5715" stroke="#222C33" stroke-miterlimit="10"/>
<path d="M60.9493 18.9863L52.3633 27.5724" stroke="#222C33" stroke-miterlimit="10"/>
<path d="M60.9494 23.3398L56.7168 27.5724" stroke="#222C33" stroke-miterlimit="10"/>
</g>
<defs>
<clipPath id="clip0_2593_15939">
<rect width="104" height="79.814" fill="white"/>
</clipPath>
</defs>
</svg>
