<svg width="104" height="80" viewBox="0 0 104 80" fill="none" xmlns="http://www.w3.org/2000/svg">
<path d="M47.8756 35.2883C48.1162 35.6492 48.1162 36.1305 47.8756 36.3711C47.635 36.732 47.0334 36.732 46.7928 36.3711C46.5521 36.1305 46.5521 35.6492 46.7928 35.2883C47.1537 34.9273 47.635 34.9273 47.8756 35.2883Z" fill="#222C33"/>
<path d="M49.0779 38.5371C48.8373 38.2965 48.8373 37.6949 49.0779 37.4543C49.3186 37.0934 49.9201 37.0934 50.1607 37.4543C50.4014 37.6949 50.4014 38.2965 50.1607 38.5371C49.9201 38.7777 49.3186 38.898 49.0779 38.5371Z" fill="#222C33"/>
<path d="M52.3268 40.8238C52.0861 41.0644 51.4846 41.0644 51.2439 40.8238C51.0033 40.5832 51.0033 39.9816 51.2439 39.741C51.6049 39.5004 52.0861 39.5004 52.3268 39.741C52.6877 39.9816 52.6877 40.4629 52.3268 40.8238Z" fill="#222C33"/>
<path d="M54.8535 37.2141C55.0941 37.4547 55.0941 38.0562 54.8535 38.2969C54.6129 38.5375 54.0113 38.5375 53.7707 38.2969C53.4098 38.0562 53.4098 37.4547 53.7707 37.2141C54.0113 36.8531 54.6129 36.8531 54.8535 37.2141Z" fill="#222C33"/>
<path d="M52.6881 36.0113C52.4475 36.2519 51.8459 36.2519 51.6053 36.0113C51.3646 35.6504 51.3646 35.1691 51.6053 34.9285C51.8459 34.6879 52.4475 34.6879 52.6881 34.9285C52.9287 35.2894 52.9287 35.7707 52.6881 36.0113Z" fill="#222C33"/>
<path d="M49.9201 33.9652C50.3188 33.9652 50.642 33.642 50.642 33.2434C50.642 32.8447 50.3188 32.5215 49.9201 32.5215C49.5214 32.5215 49.1982 32.8447 49.1982 33.2434C49.1982 33.642 49.5214 33.9652 49.9201 33.9652Z" fill="#222C33"/>
<path d="M52.9283 30.2376C53.2892 30.4782 53.2892 31.0797 52.9283 31.3204C52.6877 31.561 52.0861 31.561 51.8455 31.3204C51.6049 31.0797 51.6049 30.4782 51.8455 30.2376C52.0861 29.9969 52.6877 29.8766 52.9283 30.2376Z" fill="#222C33"/>
<path d="M54.0115 32.4012C54.2521 32.1605 54.8537 32.1605 55.0943 32.4012C55.335 32.6418 55.335 33.2434 55.0943 33.484C54.7334 33.7246 54.2521 33.7246 54.0115 33.484C53.7709 33.2434 53.7709 32.7621 54.0115 32.4012Z" fill="#222C33"/>
<path d="M57.3795 35.7711C57.1389 36.0117 56.5373 36.0117 56.2967 35.7711C56.0561 35.4102 56.0561 34.9289 56.2967 34.6883C56.5373 34.4477 57.1389 34.4477 57.3795 34.6883C57.6201 34.9289 57.6201 35.4102 57.3795 35.7711Z" fill="#222C33"/>
<path d="M50.1613 38.5375C50.4019 38.2968 50.4019 37.6953 50.1613 37.4546C49.9206 37.0937 49.3191 37.0937 49.0784 37.4546C48.8378 37.6953 48.8378 38.2968 49.0784 38.5375C49.3191 38.7781 49.8003 38.8984 50.1613 38.5375ZM52.9284 30.2359C52.6878 29.9953 52.0862 29.9953 51.8456 30.2359C51.605 30.4766 51.605 31.0781 51.8456 31.3187C52.0862 31.5594 52.6878 31.5594 52.9284 31.3187C53.2894 30.9578 53.2894 30.4766 52.9284 30.2359ZM52.3269 39.7406C52.0862 39.4999 51.4847 39.4999 51.2441 39.7406C51.0034 39.9812 51.0034 40.5827 51.2441 40.8234C51.605 41.064 52.0862 41.064 52.3269 40.8234C52.6878 40.4624 52.6878 39.9812 52.3269 39.7406ZM50.4019 32.7625C50.1612 32.5219 49.5597 32.5219 49.3191 32.7625C49.0784 33.0031 49.0784 33.6047 49.3191 33.8453C49.5597 34.0859 50.1612 34.0859 50.4019 33.8453C50.6425 33.6047 50.7628 33.0031 50.4019 32.7625ZM51.4847 34.9281C51.2441 35.289 51.2441 35.7703 51.4847 36.0109C51.7253 36.2515 52.3269 36.2515 52.5675 36.0109C52.9284 35.65 52.9284 35.1687 52.5675 34.9281C52.3269 34.6875 51.8456 34.6875 51.4847 34.9281ZM47.8753 36.3718C48.1159 36.1312 48.1159 35.65 47.8753 35.289C47.6347 35.0484 47.0331 35.0484 46.7925 35.289C46.5519 35.65 46.5519 36.1312 46.7925 36.3718C47.1535 36.6125 47.6347 36.6125 47.8753 36.3718ZM61.1096 35.5297L52.0862 44.4327L47.8753 48.6436C45.7097 50.8092 42.5816 51.0499 40.0551 49.6061C39.5738 49.3655 39.2129 49.0046 38.8519 48.6436C36.3254 46.1171 36.3254 42.1468 38.8519 39.6203L43.0629 35.4093L52.0862 26.386L56.2971 22.1751C58.7034 19.7688 62.4331 19.6485 64.9596 21.8141C65.0799 21.9344 65.2002 22.0547 65.3205 22.1751C66.5237 23.3782 67.1252 25.0625 67.1252 26.6266C67.1252 28.1906 66.5237 29.9953 65.3205 31.3187L61.1096 35.5297ZM56.2971 35.7703C56.5378 36.0109 57.1393 36.0109 57.38 35.7703C57.6206 35.4093 57.6206 34.9281 57.38 34.6875C57.1393 34.4469 56.5378 34.4469 56.2971 34.6875C55.9362 34.9281 55.9362 35.4093 56.2971 35.7703ZM55.2143 32.4016C54.8534 32.1609 54.3722 32.1609 54.1315 32.4016C53.7706 32.6422 53.7706 33.2437 54.1315 33.4844C54.3722 33.725 54.9737 33.725 55.2143 33.4844C55.455 33.2437 55.455 32.7625 55.2143 32.4016ZM54.8534 38.2968C55.094 38.0562 55.094 37.4546 54.8534 37.214C54.6128 36.9734 54.0112 36.9734 53.7706 37.214C53.4097 37.4546 53.4097 38.0562 53.7706 38.2968C54.0112 38.5375 54.6128 38.5375 54.8534 38.2968Z" fill="#FDCA0B"/>
<path d="M43.0629 35.5296L38.8519 31.3187C36.3254 28.7921 36.3254 24.8218 38.8519 22.2953C41.3785 19.7688 45.3488 19.7688 47.8753 22.2953L52.0862 26.5062L43.0629 35.5296Z" fill="#158864"/>
<path d="M52.0869 44.4335L61.1103 35.4102L65.3212 39.6211C67.8478 42.1476 67.8478 46.1179 65.3212 48.6444C64.1181 49.8476 62.4337 50.4491 60.8697 50.4491C59.3056 50.4491 57.6213 49.8476 56.4181 48.6444L52.0869 44.4335Z" fill="#158864"/>
<path d="M28.6249 58.0278C26.2187 54.5387 24.1734 50.8091 22.6094 46.8388C20.2031 40.7029 19 34.206 19 27.4686V13.9937L52.0857 1L60.1466 4.12811" stroke="#222C33" stroke-miterlimit="10" stroke-linecap="round" stroke-linejoin="round"/>
<path d="M74.8244 9.9043L85.2915 13.9949V27.4698C85.2915 45.1556 76.5088 61.7587 61.7104 71.6242L52.0855 78.0008L42.4605 71.5039C40.8965 70.4211 39.3324 69.3383 37.8887 68.1352" stroke="#222C33" stroke-miterlimit="10" stroke-linecap="round" stroke-linejoin="round"/>
<path d="M31.1515 55.3805C31.1515 55.2602 31.0312 55.2602 31.0312 55.1399C28.9859 52.1321 27.3015 48.8837 25.9781 45.515C23.6922 39.8603 22.6094 33.7244 22.6094 27.4682V16.5198L52.0858 4.84961L59.906 7.8574" stroke="#222C33" stroke-miterlimit="10" stroke-linecap="round" stroke-linejoin="round"/>
<path d="M70.6141 12.0684L71.8172 12.5496L81.6827 16.3996V27.4683C81.6827 44.0713 73.5015 59.3509 59.6657 68.6149L52.0861 73.668L44.5064 68.6149C42.4611 67.2915 40.5361 65.7274 38.7314 64.1634" stroke="#222C33" stroke-miterlimit="10" stroke-linecap="round" stroke-linejoin="round"/>
<path d="M61.1093 35.5293L65.3202 39.7402C67.8468 42.2668 67.8468 46.237 65.3202 48.7636C64.1171 49.9667 62.4327 50.5683 60.8687 50.5683C59.3046 50.5683 57.6203 49.9667 56.4172 48.7636L52.0859 44.4324" stroke="#222C33" stroke-miterlimit="10" stroke-linecap="round" stroke-linejoin="round"/>
<path d="M43.0619 35.5296L38.851 31.3187C36.3244 28.7921 36.3244 24.8218 38.851 22.2953C41.3775 19.7688 45.3478 19.7688 47.8743 22.2953L52.0853 26.5062" stroke="#222C33" stroke-miterlimit="10" stroke-linecap="round" stroke-linejoin="round"/>
<path d="M40.0541 49.6061C39.5728 49.3655 39.2119 49.0046 38.851 48.6436C36.3244 46.1171 36.3244 42.1468 38.851 39.6203L43.0619 35.4093L52.0853 26.386L56.2962 22.1751C58.7024 19.7688 62.4321 19.6485 64.9586 21.8141C65.0789 21.9344 65.1992 22.0547 65.3196 22.1751C66.5227 23.3782 67.1242 25.0625 67.1242 26.6266C67.1242 28.1906 66.5227 29.9953 65.3196 31.3187L61.1086 35.5297L52.0853 44.4327L47.8743 48.6436C45.829 50.8092 42.5806 51.0499 40.0541 49.6061Z" stroke="#222C33" stroke-miterlimit="10" stroke-linecap="round" stroke-linejoin="round"/>
<path d="M54.251 27.709L59.7853 33.2433" stroke="#222C33" stroke-miterlimit="10" stroke-linecap="round" stroke-linejoin="round"/>
<path d="M44.3857 37.6953L49.9201 43.2297" stroke="#222C33" stroke-miterlimit="10" stroke-linecap="round" stroke-linejoin="round"/>
<path d="M52.9283 31.3199C52.6877 31.5605 52.0861 31.5605 51.8455 31.3199C51.6049 31.0793 51.6049 30.4777 51.8455 30.2371C52.0861 29.9965 52.6877 29.9965 52.9283 30.2371C53.2892 30.4777 53.2892 30.959 52.9283 31.3199Z" stroke="#222C33" stroke-miterlimit="10" stroke-linecap="round" stroke-linejoin="round"/>
<path d="M55.2139 33.484C54.8529 33.7246 54.3717 33.7246 54.1311 33.484C53.7701 33.2434 53.7701 32.6418 54.1311 32.4012C54.3717 32.1605 54.9732 32.1605 55.2139 32.4012C55.4545 32.7621 55.4545 33.2434 55.2139 33.484Z" stroke="#222C33" stroke-miterlimit="10" stroke-linecap="round" stroke-linejoin="round"/>
<path d="M57.3795 35.7691C57.1389 36.0098 56.5373 36.0098 56.2967 35.7691C56.0561 35.4082 56.0561 34.927 56.2967 34.6863C56.5373 34.4457 57.1389 34.4457 57.3795 34.6863C57.6201 34.927 57.6201 35.4082 57.3795 35.7691Z" stroke="#222C33" stroke-miterlimit="10" stroke-linecap="round" stroke-linejoin="round"/>
<path d="M49.9201 33.9652C50.3188 33.9652 50.642 33.642 50.642 33.2434C50.642 32.8447 50.3188 32.5215 49.9201 32.5215C49.5214 32.5215 49.1982 32.8447 49.1982 33.2434C49.1982 33.642 49.5214 33.9652 49.9201 33.9652Z" stroke="#222C33" stroke-miterlimit="10" stroke-linecap="round" stroke-linejoin="round"/>
<path d="M52.6871 36.0113C52.4465 36.2519 51.8449 36.2519 51.6043 36.0113C51.3637 35.6504 51.3637 35.1691 51.6043 34.9285C51.8449 34.6879 52.4465 34.6879 52.6871 34.9285C52.9277 35.2894 52.9277 35.7707 52.6871 36.0113Z" stroke="#222C33" stroke-miterlimit="10" stroke-linecap="round" stroke-linejoin="round"/>
<path d="M54.8525 38.2965C54.6119 38.5371 54.0103 38.5371 53.7697 38.2965C53.4088 38.0559 53.4088 37.4543 53.7697 37.2137C54.0103 36.973 54.6119 36.973 54.8525 37.2137C55.0932 37.4543 55.2135 37.9355 54.8525 38.2965Z" stroke="#222C33" stroke-miterlimit="10" stroke-linecap="round" stroke-linejoin="round"/>
<path d="M47.8746 36.3707C47.634 36.7316 47.0324 36.7316 46.7918 36.3707C46.5512 36.1301 46.5512 35.6488 46.7918 35.2879C47.0324 35.0473 47.634 35.0473 47.8746 35.2879C48.2355 35.5285 48.2355 36.0098 47.8746 36.3707Z" stroke="#222C33" stroke-miterlimit="10" stroke-linecap="round" stroke-linejoin="round"/>
<path d="M50.1607 38.5371C49.9201 38.7777 49.3186 38.7777 49.0779 38.5371C48.8373 38.2965 48.8373 37.6949 49.0779 37.4543C49.3186 37.0934 49.9201 37.0934 50.1607 37.4543C50.4014 37.8152 50.4014 38.2965 50.1607 38.5371Z" stroke="#222C33" stroke-miterlimit="10" stroke-linecap="round" stroke-linejoin="round"/>
<path d="M52.3268 40.8238C52.0861 41.0644 51.4846 41.0644 51.2439 40.8238C51.0033 40.5832 51.0033 39.9816 51.2439 39.741C51.6049 39.5004 52.0861 39.5004 52.3268 39.741C52.6877 39.9816 52.6877 40.4629 52.3268 40.8238Z" stroke="#222C33" stroke-miterlimit="10" stroke-linecap="round" stroke-linejoin="round"/>
<path d="M35.2422 65.7272L35.1219 64.2835L34.6406 56.5836L39.4531 52.132L40.0547 49.6055" stroke="#222C33" stroke-miterlimit="10" stroke-linecap="round" stroke-linejoin="round"/>
<path d="M71.4558 8.58008L68.3277 9.90351L68.2074 11.9488L67.9668 14.5957L67.6058 19.2878L64.959 22.055" stroke="#222C33" stroke-miterlimit="10" stroke-linecap="round" stroke-linejoin="round"/>
<path d="M63.5156 5.45117V9.30115L67.9672 14.5949" stroke="#222C33" stroke-miterlimit="10" stroke-linecap="round" stroke-linejoin="round"/>
<path d="M34.64 56.584L33.6775 57.6668L30.79 60.9152" stroke="#222C33" stroke-miterlimit="10" stroke-linecap="round" stroke-linejoin="round"/>
</svg>
