<svg width="32" height="33" viewBox="0 0 32 33" fill="none" xmlns="http://www.w3.org/2000/svg">
<g id="knowledge">
<g id="Group">
<path id="Vector" d="M8.97468 17.8125L2.89873 20.4375C2.70886 20.4375 2.51899 20.4375 2.32911 20.25L1 17.0625C1 16.875 1 16.6875 1.18987 16.5L7.26582 13.875" stroke="#4C6372" stroke-width="2" stroke-miterlimit="10" stroke-linecap="round" stroke-linejoin="round"/>
<path id="Vector_2" d="M23.9752 13.125L10.6841 18.9375C10.1145 19.125 9.54486 18.9375 9.35499 18.375L6.88663 13.3125C6.69676 12.75 6.88663 12.1875 7.45625 12L20.9373 6.1875" stroke="#4C6372" stroke-width="2" stroke-miterlimit="10" stroke-linecap="round" stroke-linejoin="round"/>
<path id="Vector_3" d="M26.4431 1.5L31.0001 12L26.4431 13.875C25.3039 14.25 24.1646 13.875 23.595 12.75L20.7469 6C20.3672 4.875 20.7469 3.75 21.8861 3.1875L26.4431 1.5Z" stroke="#4C6372" stroke-width="2" stroke-miterlimit="10" stroke-linecap="round" stroke-linejoin="round"/>
<path id="Vector_4" d="M20.1768 14.8125V21.375C20.1768 21.9375 19.7971 22.5 19.0376 22.5H15.9996C15.43 22.5 14.8604 22.125 14.8604 21.375V17.0625" stroke="#4C6372" stroke-width="2" stroke-miterlimit="10" stroke-linecap="round" stroke-linejoin="round"/>
<path id="Vector_5" d="M15.43 22.125L8.21484 31.5" stroke="#4C6372" stroke-width="2" stroke-miterlimit="10" stroke-linecap="round" stroke-linejoin="round"/>
<path id="Vector_6" d="M19.6084 22.125L26.8236 31.5" stroke="#4C6372" stroke-width="2" stroke-miterlimit="10" stroke-linecap="round" stroke-linejoin="round"/>
</g>
</g>
</svg>
