<svg width="37" height="37" viewBox="0 0 37 37" fill="none" xmlns="http://www.w3.org/2000/svg">
<path d="M20.0908 25.0078C21.0783 24.7891 22.0657 24.2422 22.724 23.4766L21.8463 22.6016C22.3949 22.0547 22.8338 21.2891 23.1629 20.5234" stroke="#222C33" stroke-miterlimit="10" stroke-linecap="round" stroke-linejoin="round"/>
<path d="M14.0566 23.4766C14.8247 24.2422 15.7024 24.6797 16.6899 25.0078L17.019 23.8047C17.787 24.0234 18.6648 24.0234 19.4328 23.9141" stroke="#222C33" stroke-miterlimit="10" stroke-linecap="round" stroke-linejoin="round"/>
<path d="M12.4107 17.4609C12.1912 18.4453 12.1912 19.5391 12.4107 20.5234L13.6176 20.1953C13.837 20.9609 14.1662 21.7266 14.7147 22.2734" stroke="#222C33" stroke-miterlimit="10" stroke-linecap="round" stroke-linejoin="round"/>
<path d="M16.7996 12.9766C15.8122 13.1953 14.8247 13.7422 14.1664 14.5078L15.0442 15.3828C14.4956 15.9297 14.0567 16.6953 13.7275 17.4609" stroke="#222C33" stroke-miterlimit="10" stroke-linecap="round" stroke-linejoin="round"/>
<path d="M22.8342 14.5078C22.0662 13.7422 21.1884 13.3047 20.201 12.9766L19.8718 14.1797C19.1038 13.9609 18.226 13.9609 17.458 14.0703" stroke="#222C33" stroke-miterlimit="10" stroke-linecap="round" stroke-linejoin="round"/>
<path d="M24.4799 20.5234C24.6993 19.5391 24.6993 18.4453 24.4799 17.4609L23.273 17.7891C23.0535 17.0234 22.7244 16.2578 22.1758 15.7109" stroke="#222C33" stroke-miterlimit="10" stroke-linecap="round" stroke-linejoin="round"/>
<path d="M18.4453 21.1797C19.6572 21.1797 20.6397 20.2003 20.6397 18.9922C20.6397 17.7841 19.6572 16.8047 18.4453 16.8047C17.2334 16.8047 16.251 17.7841 16.251 18.9922C16.251 20.2003 17.2334 21.1797 18.4453 21.1797Z" stroke="#222C33" stroke-miterlimit="10" stroke-linecap="round" stroke-linejoin="round"/>
<path d="M33.1476 30.6953C34.7934 30.6953 36.0003 32.0078 36.0003 33.5391C36.0003 35.1797 34.6836 36.3828 33.1476 36.3828C31.6115 36.3828 30.2949 35.0703 30.2949 33.5391C30.2949 32.7734 30.6241 32.0078 31.1727 31.4609C31.6115 31.0234 32.2698 30.6953 33.1476 30.6953Z" fill="#158864"/>
<path d="M34.3542 5.86719C34.3542 7.83594 33.0376 9.47656 31.2821 10.0234C30.953 10.1328 30.7335 10.1328 30.2947 10.2422C30.185 10.2422 30.0752 10.2422 29.9655 10.2422C28.8683 10.2422 27.8809 9.80469 27.1129 9.14844C26.2351 8.38281 25.6865 7.28906 25.6865 6.08594C25.6865 5.97656 25.6865 5.97656 25.6865 5.86719C25.6865 5.64844 25.6865 5.32031 25.7962 5.10156C26.1254 3.02344 27.9906 1.49219 30.0752 1.49219C32.489 1.49219 34.3542 3.46094 34.3542 5.86719Z" fill="#FDCA0B"/>
<path d="M30.4039 10.2422C32.2691 12.6484 33.2566 15.7109 33.2566 18.9922C33.2566 23.0391 31.6108 26.7578 28.8679 29.3828L25.0277 25.5547C26.6735 23.9141 27.7707 21.6172 27.7707 18.9922C27.7707 16.2578 26.5638 13.7422 24.5889 12.1016L25.0277 11.6641L27.2221 9.25781C27.9901 9.91406 28.9776 10.3516 30.0748 10.3516C30.1845 10.2422 30.2942 10.2422 30.4039 10.2422Z" fill="#158864"/>
<path d="M25.0284 25.5547L28.9783 29.4922C26.345 32.2266 22.6146 33.8672 18.5551 33.8672C10.3262 33.8672 3.74316 27.3047 3.74316 19.1016C3.74316 18.0078 3.85288 16.9141 4.07232 15.9297C4.40147 16.0391 4.73063 16.0391 5.1695 16.0391C7.36385 16.0391 9.11934 14.2891 9.11934 12.1016C9.11934 10.8984 8.57075 9.80469 7.69301 9.03906C10.436 6.08594 14.2761 4.22656 18.6648 4.22656C21.298 4.22656 23.7118 4.88281 25.7965 6.08594C25.9062 7.28906 26.4548 8.38281 27.2228 9.14844L25.0284 11.5547L24.5896 11.9922C22.9438 10.5703 20.7494 9.69531 18.4454 9.69531C14.8247 9.69531 11.7526 11.6641 10.2165 14.6172C9.55821 15.9297 9.22906 17.3516 9.22906 18.8828C9.22906 24.0234 13.3983 28.0703 18.4454 28.0703C20.9689 28.1797 23.2729 27.1953 25.0284 25.5547Z" fill="#158864"/>
<path d="M7.47335 9.03853C8.3511 9.80416 8.89969 10.8979 8.89969 12.101C8.89969 14.2885 7.1442 16.0385 4.94984 16.0385C4.62069 16.0385 4.18182 15.9292 3.85266 15.9292C2.2069 15.4917 1 13.9604 1 12.2104C1 10.0229 2.75549 8.27291 4.94984 8.27291C5.9373 8.16353 6.81505 8.49166 7.47335 9.03853Z" fill="white"/>
<path d="M24.589 12.101C26.5639 13.851 27.7708 16.2572 27.7708 18.9916C27.7708 21.5072 26.6737 23.8041 25.0279 25.5541C23.3821 27.1947 21.078 28.2885 18.4448 28.2885C13.2881 28.2885 9.22852 24.1322 9.22852 19.101C9.22852 17.5697 9.66739 16.1479 10.216 14.8354C11.752 11.8822 14.8241 9.91349 18.4448 9.91349C20.7489 9.80411 22.9432 10.6791 24.589 12.101Z" stroke="#222C33" stroke-miterlimit="10" stroke-linecap="round" stroke-linejoin="round"/>
<path d="M25.6865 6.08594C25.6865 5.97656 25.6865 5.97656 25.6865 5.86719C25.6865 5.64844 25.6865 5.32031 25.7962 5.10156C26.1254 3.02344 27.9906 1.49219 30.0752 1.49219C32.489 1.49219 34.464 3.46094 34.464 5.86719C34.464 7.83594 33.1473 9.47656 31.3919 10.0234C31.0627 10.1328 30.8433 10.1328 30.4044 10.2422C30.2947 10.2422 30.185 10.2422 30.0752 10.2422C28.9781 10.2422 27.9906 9.80469 27.2226 9.14844C26.2351 8.38281 25.6865 7.28906 25.6865 6.08594Z" stroke="#222C33" stroke-miterlimit="10" stroke-linecap="round" stroke-linejoin="round"/>
<path d="M3.96204 15.8203C4.29119 15.9297 4.62035 15.9297 5.05922 15.9297C7.25358 15.9297 9.00906 14.1797 9.00906 11.9922C9.00906 10.7891 8.46047 9.69531 7.58273 8.92969C6.92442 8.38281 6.04668 8.05469 5.05922 8.05469C2.86486 8.05469 1.10938 9.80469 1.10938 11.9922C1.10938 13.8516 2.31627 15.3828 3.96204 15.8203Z" stroke="#222C33" stroke-miterlimit="10" stroke-linecap="round" stroke-linejoin="round"/>
<path d="M30.1846 33.6484C30.1846 35.2891 31.5012 36.4922 33.0372 36.4922C34.683 36.4922 35.8899 35.1797 35.8899 33.6484C35.8899 32.1172 34.5733 30.8047 33.0372 30.8047C32.2692 30.8047 31.5012 31.1328 30.9526 31.6797C30.5137 32.1172 30.1846 32.8828 30.1846 33.6484Z" stroke="#222C33" stroke-miterlimit="10" stroke-linecap="round" stroke-linejoin="round"/>
<path d="M27.113 9.14844L25.0283 11.6641" stroke="#222C33" stroke-miterlimit="10" stroke-linecap="round" stroke-linejoin="round"/>
<path d="M31.0628 31.5703L30.0753 30.5859L28.8684 29.3828L25.0283 25.5547" stroke="#222C33" stroke-miterlimit="10" stroke-linecap="round" stroke-linejoin="round"/>
<path d="M9.66749 14.5078L8.57031 13.8516" stroke="#222C33" stroke-miterlimit="10" stroke-linecap="round" stroke-linejoin="round"/>
<path d="M30.404 10.2422C32.2692 12.6484 33.2566 15.7109 33.2566 18.9922C33.2566 23.0391 31.6109 26.7578 28.8679 29.3828C26.2347 32.1172 22.5043 33.7578 18.4447 33.7578C10.2159 33.7578 3.63281 27.1953 3.63281 18.9922C3.63281 17.8984 3.74253 16.8047 3.96197 15.8203" stroke="#222C33" stroke-miterlimit="10" stroke-linecap="round" stroke-linejoin="round"/>
<path d="M7.47266 9.03906C10.2156 6.08594 14.0557 4.22656 18.4444 4.22656C21.0777 4.22656 23.4915 4.88281 25.5761 6.08594" stroke="#222C33" stroke-miterlimit="10" stroke-linecap="round" stroke-linejoin="round"/>
</svg>
