<svg width="91" height="80" viewBox="0 0 91 80" fill="none" xmlns="http://www.w3.org/2000/svg">
<path d="M17.8232 39.0609C18.0651 23.3399 30.7628 10.6423 46.3628 10.4004" stroke="#222C33" stroke-miterlimit="10" stroke-linecap="round" stroke-linejoin="round"/>
<path d="M46.8467 68.4469C62.4467 68.4469 75.1443 56.112 75.8699 40.7539" stroke="#222C33" stroke-miterlimit="10" stroke-linecap="round" stroke-linejoin="round"/>
<path d="M28.1025 39.0611C28.3444 29.0239 36.4467 20.9215 46.4839 20.6797" stroke="#222C33" stroke-miterlimit="10" stroke-linecap="round" stroke-linejoin="round"/>
<path d="M65.2277 43.1719C65.1068 44.0184 64.8649 44.744 64.623 45.5905" stroke="#222C33" stroke-miterlimit="10" stroke-linecap="round" stroke-linejoin="round"/>
<path d="M46.8467 58.1686C51.2002 58.1686 55.0699 56.7174 58.3351 54.2988" stroke="#222C33" stroke-miterlimit="10" stroke-linecap="round" stroke-linejoin="round"/>
<path d="M8.63213 41.4785H43.2182C43.9438 41.4785 44.4275 41.9622 44.4275 42.6878V77.3948C44.4275 77.9995 43.9438 78.6041 43.2182 78.6041H5.00422C4.27864 78.6041 3.79492 77.9995 3.79492 77.3948V46.3157" fill="white"/>
<path d="M8.63213 41.4785H43.2182C43.9438 41.4785 44.4275 41.9622 44.4275 42.6878V77.3948C44.4275 77.9994 43.9438 78.6041 43.2182 78.6041H5.00422C4.27864 78.6041 3.79492 77.9994 3.79492 77.3948V46.3157" stroke="#222C33" stroke-miterlimit="10" stroke-linecap="round" stroke-linejoin="round"/>
<path d="M27.86 67.2375L27.4972 69.0514H20.7251L20.3623 67.2375C20.2414 66.5119 19.8786 65.9072 19.3949 65.4235C17.8228 63.8514 16.9763 61.6747 17.46 59.2561C17.9437 56.5956 20.1205 54.4189 22.781 53.9351C27.1344 53.0886 31.0042 56.3537 31.0042 60.5863C31.0042 62.5212 30.2786 64.2142 28.9484 65.4235C28.3437 65.9072 27.981 66.5119 27.86 67.2375Z" fill="white" stroke="#222C33" stroke-miterlimit="10" stroke-linecap="round" stroke-linejoin="round"/>
<path d="M23.2648 69.0524V62.8849L21.9346 61.5547" fill="white"/>
<path d="M23.2648 69.0524V62.8849L21.9346 61.5547" stroke="#222C33" stroke-miterlimit="10" stroke-linecap="round" stroke-linejoin="round"/>
<path d="M24.958 69.0524V62.8849L26.2882 61.5547" fill="white"/>
<path d="M24.958 69.0524V62.8849L26.2882 61.5547" stroke="#222C33" stroke-miterlimit="10" stroke-linecap="round" stroke-linejoin="round"/>
<path d="M20.9668 70.502H27.2552" stroke="#222C33" stroke-miterlimit="10" stroke-linecap="round" stroke-linejoin="round"/>
<path d="M22.1768 72.0742H25.9256" stroke="#222C33" stroke-miterlimit="10" stroke-linecap="round" stroke-linejoin="round"/>
<path d="M24.1113 51.2749V48.0098" stroke="#222C33" stroke-miterlimit="10" stroke-linecap="round" stroke-linejoin="round"/>
<path d="M28.9482 52.6055L30.6413 49.7031" stroke="#222C33" stroke-miterlimit="10" stroke-linecap="round" stroke-linejoin="round"/>
<path d="M12.8643 67.4801L15.7666 65.7871" stroke="#222C33" stroke-miterlimit="10" stroke-linecap="round" stroke-linejoin="round"/>
<path d="M32.4551 56.1129L35.3574 54.4199" stroke="#222C33" stroke-miterlimit="10" stroke-linecap="round" stroke-linejoin="round"/>
<path d="M11.0508 60.9492H14.4368" stroke="#222C33" stroke-miterlimit="10" stroke-linecap="round" stroke-linejoin="round"/>
<path d="M33.7861 60.9492H37.0512" stroke="#222C33" stroke-miterlimit="10" stroke-linecap="round" stroke-linejoin="round"/>
<path d="M12.8643 54.4199L15.7666 56.1129" stroke="#222C33" stroke-miterlimit="10" stroke-linecap="round" stroke-linejoin="round"/>
<path d="M32.4551 65.7871L35.3574 67.4801" stroke="#222C33" stroke-miterlimit="10" stroke-linecap="round" stroke-linejoin="round"/>
<path d="M17.5811 49.7031L19.2741 52.6055" stroke="#222C33" stroke-miterlimit="10" stroke-linecap="round" stroke-linejoin="round"/>
<path d="M24.1113 48.0098V51.2749" stroke="#222C33" stroke-miterlimit="10" stroke-linecap="round" stroke-linejoin="round"/>
<path d="M87.1165 38.3346H67.042C66.3165 38.3346 65.5909 38.6974 65.1072 39.302L63.656 41.3578C62.8095 42.4462 61.1165 42.4462 60.3909 41.3578L59.0606 39.4229C58.5769 38.8183 57.8513 38.3346 57.1258 38.3346H51.442C50.1118 38.3346 49.0234 37.2462 49.0234 35.916V3.62759C49.0234 2.29736 50.1118 1.20898 51.442 1.20898H87.1165C88.4467 1.20898 89.5351 2.29736 89.5351 3.62759V35.916C89.5351 37.2462 88.4467 38.3346 87.1165 38.3346Z" fill="white" stroke="#222C33" stroke-miterlimit="10" stroke-linecap="round" stroke-linejoin="round"/>
<path d="M82.0369 12.818H56.0369C54.7067 12.818 53.7393 11.7296 53.7393 10.5203C53.7393 9.1901 54.8276 8.22266 56.0369 8.22266H81.916C83.2462 8.22266 84.2137 9.31103 84.2137 10.5203C84.3346 11.8506 83.2462 12.818 82.0369 12.818Z" fill="#FDCA0B" stroke="#222C33" stroke-miterlimit="10" stroke-linecap="round" stroke-linejoin="round"/>
<path d="M53.7393 18.623H72.9672" stroke="#222C33" stroke-miterlimit="10" stroke-linecap="round" stroke-linejoin="round"/>
<path d="M53.7393 24.4277H61.9625" stroke="#222C33" stroke-miterlimit="10" stroke-linecap="round" stroke-linejoin="round"/>
<path d="M64.9863 24.4277H76.5956" stroke="#222C33" stroke-miterlimit="10" stroke-linecap="round" stroke-linejoin="round"/>
<path d="M53.7393 31.0781H71.9997" stroke="#222C33" stroke-miterlimit="10" stroke-linecap="round" stroke-linejoin="round"/>
<path d="M78.6512 30.5953L76.3535 31.2L76.9582 28.9023L83.8512 22.0093C84.3349 21.5256 85.0605 21.5256 85.5442 22.0093C86.0279 22.493 86.0279 23.2186 85.5442 23.7023L78.6512 30.5953Z" fill="white" stroke="#222C33" stroke-miterlimit="10" stroke-linecap="round" stroke-linejoin="round"/>
<path d="M76.958 28.9023L78.651 30.5954" stroke="#222C33" stroke-miterlimit="10" stroke-linecap="round" stroke-linejoin="round"/>
<path d="M82.7627 23.0977L84.4557 24.7907" stroke="#222C33" stroke-miterlimit="10" stroke-linecap="round" stroke-linejoin="round"/>
<path d="M61.9627 53.3297C63.6324 53.3297 64.986 51.9762 64.986 50.3065C64.986 48.6368 63.6324 47.2832 61.9627 47.2832C60.293 47.2832 58.9395 48.6368 58.9395 50.3065C58.9395 51.9762 60.293 53.3297 61.9627 53.3297Z" fill="#158864" stroke="#222C33" stroke-miterlimit="10" stroke-linecap="round" stroke-linejoin="round"/>
<path d="M3.79539 44.0185C5.19794 44.0185 6.33493 42.8815 6.33493 41.479C6.33493 40.0764 5.19794 38.9395 3.79539 38.9395C2.39285 38.9395 1.25586 40.0764 1.25586 41.479C1.25586 42.8815 2.39285 44.0185 3.79539 44.0185Z" fill="#FDCA0B" stroke="#222C33" stroke-miterlimit="10" stroke-linecap="round" stroke-linejoin="round"/>
</svg>
