<svg width="37" height="37" viewBox="0 0 37 37" fill="none" xmlns="http://www.w3.org/2000/svg">
<path d="M31.419 5.23529C34.8177 8.62978 36.1565 13.2586 35.4356 17.6817H27.5054L24.3127 6.8811L20.5021 19.6361C20.2962 19.5333 20.0902 19.5333 19.7812 19.5333C19.5752 19.5333 19.2663 19.5333 19.0603 19.6361L16.8975 12.3329L15.0437 17.6817H7.01053C6.28961 13.2586 7.62847 8.62978 11.0271 5.23529C16.6915 -0.422181 25.7546 -0.422181 31.419 5.23529Z" fill="white"/>
<path d="M35.4358 17.6815C35.0238 20.5617 33.685 23.339 31.4192 25.602C25.7548 31.2594 16.6917 31.2594 11.0273 25.602C8.76156 23.339 7.4227 20.5617 7.01074 17.6815H15.0439L16.8977 12.2297L19.1635 19.533C18.2366 19.8416 17.5157 20.7674 17.5157 21.796C17.5157 23.1332 18.5455 24.1619 19.8844 24.1619C21.2233 24.1619 22.2532 23.1332 22.2532 21.796C22.2532 20.6645 21.5322 19.8416 20.5023 19.533L24.313 6.88086L27.5056 17.6815H35.4358Z" fill="white"/>
<path d="M20.5023 19.6367C21.5322 19.9453 22.2531 20.8711 22.2531 21.8997C22.2531 23.2369 21.2232 24.2656 19.8844 24.2656C18.5455 24.2656 17.5156 23.2369 17.5156 21.8997C17.5156 20.7682 18.2366 19.9453 19.1635 19.6367L19.8844 21.8997L20.5023 19.6367Z" fill="#158864"/>
<path d="M20.5019 19.6361L19.781 21.8991L19.1631 19.6361C19.3691 19.5332 19.575 19.5332 19.884 19.5332C20.09 19.5332 20.296 19.6361 20.5019 19.6361Z" fill="#158864"/>
<path d="M7.31931 29.3066C7.73126 29.7181 7.93724 30.2324 7.93724 30.7467C7.93724 31.261 7.73126 31.7753 7.31931 32.1868L4.12664 35.3756C3.71468 35.787 3.19973 35.9927 2.68479 35.9927C2.16984 35.9927 1.65489 35.787 1.24294 35.3756C0.830979 34.9641 0.625 34.4498 0.625 33.9355C0.625 33.4212 0.830979 32.9068 1.24294 32.4954L4.43561 29.3066C4.84756 28.8952 5.36251 28.6895 5.87746 28.6895C6.3924 28.6895 6.90735 28.8952 7.31931 29.3066Z" fill="#FDCA0B"/>
<path d="M20.502 19.6359L24.3126 6.88086L27.5052 17.6815H35.4354" stroke="#222C33" stroke-miterlimit="10" stroke-linecap="round" stroke-linejoin="round"/>
<path d="M7.01074 17.6829H15.0439L16.8977 12.334L19.1635 19.6373" stroke="#222C33" stroke-miterlimit="10" stroke-linecap="round" stroke-linejoin="round"/>
<path d="M35.4356 17.6817C34.9206 20.5619 33.5818 23.3392 31.419 25.6022C25.7546 31.2597 16.6915 31.2597 11.0271 25.6022C8.76135 23.3392 7.42249 20.5619 7.01053 17.6817C6.28961 13.2586 7.62847 8.62978 11.0271 5.23529C16.6915 -0.422181 25.7546 -0.422181 31.419 5.23529C34.8177 8.62978 36.1565 13.2586 35.4356 17.6817Z" stroke="#222C33" stroke-miterlimit="10" stroke-linecap="round" stroke-linejoin="round"/>
<path d="M7.31934 29.3066C9.07016 27.5579 11.027 25.6035 11.027 25.6035" stroke="#222C33" stroke-miterlimit="10" stroke-linecap="round" stroke-linejoin="round"/>
<path d="M2.68479 35.9927C2.16984 35.9927 1.65489 35.787 1.24294 35.3756C0.830979 34.9641 0.625 34.4498 0.625 33.9355C0.625 33.4212 0.830979 32.9068 1.24294 32.4954L4.43561 29.3066C4.84756 28.8952 5.36251 28.6895 5.87746 28.6895C6.3924 28.6895 6.90735 28.8952 7.31931 29.3066C7.73126 29.7181 7.93724 30.2324 7.93724 30.7467C7.93724 31.261 7.73126 31.7753 7.31931 32.1868L4.12664 35.3756C3.71468 35.787 3.19973 35.9927 2.68479 35.9927Z" stroke="#222C33" stroke-miterlimit="10" stroke-linecap="round" stroke-linejoin="round"/>
<path d="M19.1635 19.6361C18.2366 19.9447 17.5156 20.8704 17.5156 21.8991C17.5156 23.2363 18.5455 24.2649 19.8844 24.2649C21.2232 24.2649 22.2531 23.2363 22.2531 21.8991C22.2531 20.7676 21.5322 19.9447 20.5023 19.6361C20.2963 19.5332 20.0904 19.5332 19.7814 19.5332C19.5754 19.5332 19.3694 19.6361 19.1635 19.6361Z" stroke="#222C33" stroke-miterlimit="10" stroke-linecap="round" stroke-linejoin="round"/>
</svg>
