<svg width="36" height="37" viewBox="0 0 36 37" fill="none" xmlns="http://www.w3.org/2000/svg">
<path d="M34.5156 31.4316L35.5 33.765L26.0937 35.9922L25.6562 34.5074L27.4063 33.871L33.6406 31.7498L34.5156 31.4316Z" fill="#158864"/>
<path d="M26.9688 8.20431C27.4062 9.79522 27.4062 11.4922 26.9688 13.0831H24.7812C24.3438 14.3558 23.6875 15.4164 22.7031 16.371L24.2344 17.8558C23.0312 19.0225 21.5 19.871 19.8594 20.2952L18.7656 18.3861C17.4531 18.5982 16.1406 18.5982 14.8281 18.2801L14.2813 20.2952C12.6406 19.871 11.1094 19.0225 9.90625 17.8558L11.1094 16.0528C10.2344 15.0982 9.57812 13.9316 9.25 12.6589L7.0625 13.0831C6.625 11.4922 6.625 9.79522 7.0625 8.20431H9.25C9.6875 6.93158 10.3437 5.87098 11.3281 4.91643L9.79688 3.43158C11 2.26491 12.5312 1.41643 14.1719 0.992188L15.2656 2.90128C16.5781 2.68916 17.8906 2.68916 19.2031 3.00734L19.75 0.992188C21.3906 1.41643 22.9219 2.26491 24.125 3.43158L23.0312 5.23461C23.9062 6.18916 24.5625 7.35582 24.8906 8.62855L26.9688 8.20431ZM19.9687 11.3861C20.4062 9.79522 19.5312 8.09825 17.8906 7.67401C16.25 7.24976 14.5 8.09825 14.0625 9.68916C13.625 11.2801 14.5 12.977 16.1406 13.4013C17.7812 13.9316 19.5312 12.977 19.9687 11.3861Z" fill="#FDCA0B"/>
<path d="M9.25 8.20431C9.6875 6.93158 10.3437 5.87097 11.3281 4.91643L9.79687 3.43158C11 2.26491 12.5313 1.41643 14.1719 0.992188L15.2656 2.90128C16.5781 2.68916 17.8906 2.68916 19.2031 3.00734L19.75 0.992188C21.3906 1.41643 22.9219 2.26491 24.125 3.43158L23.0313 5.23461C23.9063 6.18916 24.5625 7.35582 24.8906 8.62855L26.9688 8.09825C27.4063 9.68916 27.4063 11.3861 26.9688 12.977H24.7812C24.3437 14.2498 23.6875 15.3104 22.7031 16.2649L24.2344 17.7498C23.0312 18.9164 21.5 19.7649 19.8594 20.1892L18.7656 18.2801C17.4531 18.4922 16.1406 18.4922 14.8281 18.174L14.2813 20.1892C12.6406 19.7649 11.1094 18.9164 9.90625 17.7498L11.1094 15.9467C10.2344 14.9922 9.57812 13.8255 9.25 12.5528L7.0625 13.0831C6.625 11.4922 6.625 9.79522 7.0625 8.20431H9.25Z" stroke="#222C33" stroke-miterlimit="10" stroke-linecap="round" stroke-linejoin="round"/>
<path d="M19.9685 11.3852C20.406 9.79432 19.531 8.09735 17.8904 7.67311C16.2497 7.24886 14.4997 8.09735 14.0622 9.68826C13.6247 11.2792 14.4997 12.9761 16.1404 13.4004C17.781 13.9307 19.531 12.9761 19.9685 11.3852Z" stroke="#222C33" stroke-miterlimit="10" stroke-linecap="round" stroke-linejoin="round"/>
<path d="M33.4219 31.2194C33.4219 31.2194 32.7656 30.1588 31.125 29.3104C28.8281 28.0376 24.4531 26.871 17.6719 29.5225C16.4688 29.9467 15.0469 30.5831 13.7344 31.3255" stroke="#222C33" stroke-miterlimit="10" stroke-linecap="round" stroke-linejoin="round"/>
<path d="M31.125 29.205C28.2813 25.811 23.25 24.3262 20.0781 24.3262H11.2188" stroke="#222C33" stroke-miterlimit="10" stroke-linecap="round" stroke-linejoin="round"/>
<path d="M18.5469 27.084C18.7656 26.7659 19.0937 26.3416 19.4219 26.0234" stroke="#222C33" stroke-miterlimit="10" stroke-linecap="round" stroke-linejoin="round"/>
<path d="M17.6719 29.4173C17.6719 29.4173 17.7812 28.4628 18.3281 27.4022C18.4375 27.2961 18.4375 27.19 18.5469 27.084" stroke="#222C33" stroke-miterlimit="10" stroke-linecap="round" stroke-linejoin="round"/>
<path d="M11.2188 24.3262C11.2188 26.1292 18.1094 26.9777 18.5469 26.9777" stroke="#222C33" stroke-miterlimit="10" stroke-linecap="round" stroke-linejoin="round"/>
<path d="M18.3281 27.4004L12.4219 29.4155" stroke="#222C33" stroke-miterlimit="10" stroke-linecap="round" stroke-linejoin="round"/>
<path d="M13.625 31.2188C13.4063 30.7945 12.9687 30.1581 12.4219 29.4157C10.8906 27.2945 8.70312 24.5369 7.28125 24.2188" stroke="#222C33" stroke-miterlimit="10" stroke-linecap="round" stroke-linejoin="round"/>
<path d="M11.875 33.4473L12.0938 33.7654" stroke="#222C33" stroke-miterlimit="10" stroke-linecap="round" stroke-linejoin="round"/>
<path d="M9.46875 28.4609L11.875 33.4458" stroke="#222C33" stroke-miterlimit="10" stroke-linecap="round" stroke-linejoin="round"/>
<path d="M7.39062 24.2188L9.46875 28.4612" stroke="#222C33" stroke-miterlimit="10" stroke-linecap="round" stroke-linejoin="round"/>
<path d="M27.2969 33.6595C23.5781 32.0686 15.9219 34.7202 12.0938 33.7656" stroke="#222C33" stroke-miterlimit="10" stroke-linecap="round" stroke-linejoin="round"/>
<path d="M5.75 27.8262L9.90625 33.6595L11.875 33.4474" stroke="#222C33" stroke-miterlimit="10" stroke-linecap="round" stroke-linejoin="round"/>
<path d="M3.23438 24.2188L5.75 27.8248" stroke="#222C33" stroke-miterlimit="10" stroke-linecap="round" stroke-linejoin="round"/>
<path d="M3.23438 24.2189C4.4375 22.5219 9.25 28.1432 9.46875 28.4613" stroke="#222C33" stroke-miterlimit="10" stroke-linecap="round" stroke-linejoin="round"/>
<path d="M9.90625 33.6586L8.59375 32.598L4.54688 29.4162L0.5 26.2344" stroke="#222C33" stroke-miterlimit="10" stroke-linecap="round" stroke-linejoin="round"/>
<path d="M5.75 27.8251C5.42188 27.613 2.46875 25.2797 0.5 26.2342" stroke="#222C33" stroke-miterlimit="10" stroke-linecap="round" stroke-linejoin="round"/>
<path d="M8.59375 32.5988L2.46875 29.9473" stroke="#222C33" stroke-miterlimit="10" stroke-linecap="round" stroke-linejoin="round"/>
<path d="M4.54688 29.417C3.125 29.2049 2.35938 29.9473 2.35938 29.9473" stroke="#222C33" stroke-miterlimit="10" stroke-linecap="round" stroke-linejoin="round"/>
<path d="M33.6406 31.7498L34.5156 31.4316L35.5 33.765L26.0937 35.9922L25.6562 34.5074L27.4063 33.871L33.6406 31.7498Z" stroke="#222C33" stroke-miterlimit="10" stroke-linecap="round" stroke-linejoin="round"/>
<path d="M28.8281 22.8401C30.0362 22.8401 31.0156 21.8904 31.0156 20.7189C31.0156 19.5474 30.0362 18.5977 28.8281 18.5977C27.62 18.5977 26.6406 19.5474 26.6406 20.7189C26.6406 21.8904 27.62 22.8401 28.8281 22.8401Z" fill="#158864" stroke="#222C33" stroke-miterlimit="10" stroke-linecap="round" stroke-linejoin="round"/>
<path d="M4.54688 5.33996C5.15094 5.33996 5.64062 4.86511 5.64062 4.27936C5.64062 3.6936 5.15094 3.21875 4.54688 3.21875C3.94281 3.21875 3.45312 3.6936 3.45312 4.27936C3.45312 4.86511 3.94281 5.33996 4.54688 5.33996Z" fill="#158864" stroke="#222C33" stroke-miterlimit="10" stroke-linecap="round" stroke-linejoin="round"/>
<path d="M3.125 17.7489C3.66866 17.7489 4.10938 17.3216 4.10938 16.7944C4.10938 16.2672 3.66866 15.8398 3.125 15.8398C2.58134 15.8398 2.14062 16.2672 2.14062 16.7944C2.14062 17.3216 2.58134 17.7489 3.125 17.7489Z" fill="#FDCA0B" stroke="#222C33" stroke-miterlimit="10" stroke-linecap="round" stroke-linejoin="round"/>
<path d="M29.8125 6.61304C30.5978 6.61304 31.2344 5.99574 31.2344 5.23426C31.2344 4.47277 30.5978 3.85547 29.8125 3.85547C29.0272 3.85547 28.3906 4.47277 28.3906 5.23426C28.3906 5.99574 29.0272 6.61304 29.8125 6.61304Z" fill="#FDCA0B" stroke="#222C33" stroke-miterlimit="10" stroke-linecap="round" stroke-linejoin="round"/>
</svg>
