<svg width="37" height="37" viewBox="0 0 37 37" fill="none" xmlns="http://www.w3.org/2000/svg">
<path d="M12.7227 32.0298L16.8334 22.1641" stroke="#222C33" stroke-miterlimit="10" stroke-linecap="round" stroke-linejoin="round"/>
<path d="M19.417 15.8208L23.5277 5.95508" stroke="#222C33" stroke-miterlimit="10" stroke-linecap="round" stroke-linejoin="round"/>
<path d="M11.7826 36.4929C13.0799 36.4929 14.1316 35.4412 14.1316 34.1439C14.1316 32.8466 13.0799 31.7949 11.7826 31.7949C10.4853 31.7949 9.43359 32.8466 9.43359 34.1439C9.43359 35.4412 10.4853 36.4929 11.7826 36.4929Z" fill="white" stroke="#222C33" stroke-miterlimit="10" stroke-linecap="round" stroke-linejoin="round"/>
<path d="M24.4672 6.19017C25.7645 6.19017 26.8162 5.13849 26.8162 3.84118C26.8162 2.54387 25.7645 1.49219 24.4672 1.49219C23.1698 1.49219 22.1182 2.54387 22.1182 3.84118C22.1182 5.13849 23.1698 6.19017 24.4672 6.19017Z" fill="#FDCA0B" stroke="#222C33" stroke-miterlimit="10" stroke-linecap="round" stroke-linejoin="round"/>
<path d="M5.08789 24.3939L14.9537 20.2832" stroke="#222C33" stroke-miterlimit="10" stroke-linecap="round" stroke-linejoin="round"/>
<path d="M21.2959 17.7006L31.1617 13.5898" stroke="#222C33" stroke-miterlimit="10" stroke-linecap="round" stroke-linejoin="round"/>
<path d="M2.97399 27.6843C4.27131 27.6843 5.32299 26.6326 5.32299 25.3353C5.32299 24.038 4.27131 22.9863 2.97399 22.9863C1.67668 22.9863 0.625 24.038 0.625 25.3353C0.625 26.6326 1.67668 27.6843 2.97399 27.6843Z" fill="#FDCA0B" stroke="#222C33" stroke-miterlimit="10" stroke-linecap="round" stroke-linejoin="round"/>
<path d="M33.2758 14.9988C34.5731 14.9988 35.6247 13.9471 35.6247 12.6498C35.6247 11.3525 34.5731 10.3008 33.2758 10.3008C31.9784 10.3008 30.9268 11.3525 30.9268 12.6498C30.9268 13.9471 31.9784 14.9988 33.2758 14.9988Z" fill="#158864" stroke="#222C33" stroke-miterlimit="10" stroke-linecap="round" stroke-linejoin="round"/>
<path d="M5.08789 13.5898L14.9537 17.7006" stroke="#222C33" stroke-miterlimit="10" stroke-linecap="round" stroke-linejoin="round"/>
<path d="M21.2959 20.2832L31.1617 24.3939" stroke="#222C33" stroke-miterlimit="10" stroke-linecap="round" stroke-linejoin="round"/>
<path d="M2.97399 14.9988C4.27131 14.9988 5.32299 13.9471 5.32299 12.6498C5.32299 11.3525 4.27131 10.3008 2.97399 10.3008C1.67668 10.3008 0.625 11.3525 0.625 12.6498C0.625 13.9471 1.67668 14.9988 2.97399 14.9988Z" fill="white" stroke="#222C33" stroke-miterlimit="10" stroke-linecap="round" stroke-linejoin="round"/>
<path d="M33.2758 27.6843C34.5731 27.6843 35.6247 26.6326 35.6247 25.3353C35.6247 24.038 34.5731 22.9863 33.2758 22.9863C31.9784 22.9863 30.9268 24.038 30.9268 25.3353C30.9268 26.6326 31.9784 27.6843 33.2758 27.6843Z" fill="#FDCA0B" stroke="#222C33" stroke-miterlimit="10" stroke-linecap="round" stroke-linejoin="round"/>
<path d="M12.7227 5.95508L16.8334 15.8208" stroke="#222C33" stroke-miterlimit="10" stroke-linecap="round" stroke-linejoin="round"/>
<path d="M19.417 22.1641L23.5277 32.0298" stroke="#222C33" stroke-miterlimit="10" stroke-linecap="round" stroke-linejoin="round"/>
<path d="M11.7826 6.19017C13.0799 6.19017 14.1316 5.13849 14.1316 3.84118C14.1316 2.54387 13.0799 1.49219 11.7826 1.49219C10.4853 1.49219 9.43359 2.54387 9.43359 3.84118C9.43359 5.13849 10.4853 6.19017 11.7826 6.19017Z" fill="#158864" stroke="#222C33" stroke-miterlimit="10" stroke-linecap="round" stroke-linejoin="round"/>
<path d="M24.4672 36.4929C25.7645 36.4929 26.8162 35.4412 26.8162 34.1439C26.8162 32.8466 25.7645 31.7949 24.4672 31.7949C23.1698 31.7949 22.1182 32.8466 22.1182 34.1439C22.1182 35.4412 23.1698 36.4929 24.4672 36.4929Z" fill="#158864" stroke="#222C33" stroke-miterlimit="10" stroke-linecap="round" stroke-linejoin="round"/>
<path d="M18.1251 22.5157C20.071 22.5157 21.6485 20.9382 21.6485 18.9922C21.6485 17.0463 20.071 15.4688 18.1251 15.4688C16.1791 15.4688 14.6016 17.0463 14.6016 18.9922C14.6016 20.9382 16.1791 22.5157 18.1251 22.5157Z" fill="white" stroke="#222C33" stroke-miterlimit="10" stroke-linecap="round" stroke-linejoin="round"/>
<path d="M15.424 21.6914L10.9609 26.1545" stroke="#222C33" stroke-miterlimit="10" stroke-linecap="round" stroke-linejoin="round"/>
<path d="M25.2902 11.8262L20.8271 16.2893" stroke="#222C33" stroke-miterlimit="10" stroke-linecap="round" stroke-linejoin="round"/>
<path d="M14.2495 18.9922H7.90723" stroke="#222C33" stroke-miterlimit="10" stroke-linecap="round" stroke-linejoin="round"/>
<path d="M28.3433 18.9922H22.001" stroke="#222C33" stroke-miterlimit="10" stroke-linecap="round" stroke-linejoin="round"/>
<path d="M15.424 16.2893L10.9609 11.8262" stroke="#222C33" stroke-miterlimit="10" stroke-linecap="round" stroke-linejoin="round"/>
<path d="M25.2902 26.1545L20.8271 21.6914" stroke="#222C33" stroke-miterlimit="10" stroke-linecap="round" stroke-linejoin="round"/>
<path d="M18.125 15.1157V8.77344" stroke="#222C33" stroke-miterlimit="10" stroke-linecap="round" stroke-linejoin="round"/>
<path d="M18.125 29.2095V22.8672" stroke="#222C33" stroke-miterlimit="10" stroke-linecap="round" stroke-linejoin="round"/>
</svg>
