<svg width="37" height="37" viewBox="0 0 37 37" fill="none" xmlns="http://www.w3.org/2000/svg">
<path d="M18.125 1.49219C8.5 1.49219 0.625 9.36719 0.625 18.9922C0.625 28.6172 8.5 36.4922 18.125 36.4922C27.75 36.4922 35.625 28.6172 35.625 18.9922C35.625 9.36719 27.75 1.49219 18.125 1.49219ZM18.125 29.9297C12.1094 29.9297 7.1875 25.0078 7.1875 18.9922C7.1875 12.9766 12.1094 8.05469 18.125 8.05469C24.1406 8.05469 29.0625 12.9766 29.0625 18.9922C29.0625 25.0078 24.1406 29.9297 18.125 29.9297Z" fill="#158864" stroke="#222C33" stroke-miterlimit="10" stroke-linecap="round" stroke-linejoin="round"/>
<path d="M18.4531 13.4141H8.82812L4.23438 16.1484V3.67969H18.4531V13.4141Z" fill="#FDCA0B" stroke="#222C33" stroke-miterlimit="10" stroke-linecap="round" stroke-linejoin="round"/>
<path d="M13.3125 31.3516H26L32.125 34.9609V18.5547H13.3125V31.3516Z" fill="#FDCA0B" stroke="#222C33" stroke-miterlimit="10" stroke-linecap="round" stroke-linejoin="round"/>
<path d="M7.40625 9.80469C8.01031 9.80469 8.5 9.315 8.5 8.71094C8.5 8.10688 8.01031 7.61719 7.40625 7.61719C6.80219 7.61719 6.3125 8.10688 6.3125 8.71094C6.3125 9.315 6.80219 9.80469 7.40625 9.80469Z" fill="#FF715B" stroke="#222C33" stroke-miterlimit="10" stroke-linecap="round" stroke-linejoin="round"/>
<path d="M11.3438 9.80469C11.9478 9.80469 12.4375 9.315 12.4375 8.71094C12.4375 8.10688 11.9478 7.61719 11.3438 7.61719C10.7397 7.61719 10.25 8.10688 10.25 8.71094C10.25 9.315 10.7397 9.80469 11.3438 9.80469Z" fill="#FF715B" stroke="#222C33" stroke-miterlimit="10" stroke-linecap="round" stroke-linejoin="round"/>
<path d="M15.2812 9.80469C15.8853 9.80469 16.375 9.315 16.375 8.71094C16.375 8.10688 15.8853 7.61719 15.2812 7.61719C14.6772 7.61719 14.1875 8.10688 14.1875 8.71094C14.1875 9.315 14.6772 9.80469 15.2812 9.80469Z" fill="#FF715B" stroke="#222C33" stroke-miterlimit="10" stroke-linecap="round" stroke-linejoin="round"/>
<path d="M18.0156 26.3223C18.7405 26.3223 19.3281 25.7346 19.3281 25.0098C19.3281 24.2849 18.7405 23.6973 18.0156 23.6973C17.2908 23.6973 16.7031 24.2849 16.7031 25.0098C16.7031 25.7346 17.2908 26.3223 18.0156 26.3223Z" fill="white" stroke="#222C33" stroke-miterlimit="10" stroke-linecap="round" stroke-linejoin="round"/>
<path d="M22.7188 26.3223C23.4436 26.3223 24.0312 25.7346 24.0312 25.0098C24.0312 24.2849 23.4436 23.6973 22.7188 23.6973C21.9939 23.6973 21.4062 24.2849 21.4062 25.0098C21.4062 25.7346 21.9939 26.3223 22.7188 26.3223Z" fill="white" stroke="#222C33" stroke-miterlimit="10" stroke-linecap="round" stroke-linejoin="round"/>
<path d="M27.4219 26.3223C28.1467 26.3223 28.7344 25.7346 28.7344 25.0098C28.7344 24.2849 28.1467 23.6973 27.4219 23.6973C26.697 23.6973 26.1094 24.2849 26.1094 25.0098C26.1094 25.7346 26.697 26.3223 27.4219 26.3223Z" fill="white" stroke="#222C33" stroke-miterlimit="10" stroke-linecap="round" stroke-linejoin="round"/>
</svg>
