<svg width="37" height="37" viewBox="0 0 37 37" fill="none" xmlns="http://www.w3.org/2000/svg">
<path d="M25.46 12.0399C27.9458 16.8524 30.0339 23.9618 28.443 25.0555C28.2441 25.0555 27.9458 25.0555 27.5481 25.0555C27.3493 25.0555 27.1504 24.9461 26.9515 24.8368C27.051 22.2118 25.3606 17.0711 23.4714 13.3524C21.4828 9.63363 18.301 5.47738 16.2129 4.27426C16.2129 4.05551 16.2129 3.72738 16.3123 3.50863C16.5112 3.18051 16.6106 2.96176 16.8095 2.74301C18.4004 1.75863 22.9743 7.33676 25.46 12.0399Z" fill="#FDCA0B"/>
<path d="M23.4719 13.3516C25.4606 17.0703 27.1509 22.2109 26.952 24.8359C24.864 23.6328 21.5827 19.4766 19.6935 15.7578C17.7049 12.0391 16.114 6.89844 16.2134 4.27344C18.3015 5.47656 21.5827 9.63281 23.4719 13.3516Z" fill="#222C33"/>
<path d="M16.2131 4.27344C16.1136 6.89844 17.804 12.0391 19.6932 15.7578C21.6818 19.4766 24.8636 23.6328 26.9517 24.8359C26.9517 24.9453 26.9517 25.0547 26.9517 25.0547C23.4716 25.0547 16.8097 24.2891 11.7386 26.1484V26.0391C10.8438 25.0547 9.94886 23.8516 9.25284 22.3203C8.45739 20.8984 7.96023 19.3672 7.66193 18.0547L7.5625 17.9453C11.8381 13.6797 14.6222 6.46094 16.3125 3.39844C16.2131 3.72656 16.2131 3.94531 16.2131 4.27344Z" fill="white"/>
<path d="M10.8433 26.5859L16.9086 33.6953L13.2297 35.9922L6.7666 28.5547C8.05922 27.7891 9.45126 27.1328 10.8433 26.5859Z" fill="#158864"/>
<path d="M11.7385 26.1484V26.2578C11.5396 26.2578 11.4402 26.3672 11.2413 26.3672C11.0424 26.4766 10.943 26.4766 10.8436 26.5859C9.3521 27.1328 7.96005 27.8984 6.76687 28.5547C6.07085 27.6797 5.27539 26.5859 4.57937 25.2734C3.88335 24.0703 3.38619 22.7578 3.08789 21.5547C4.3805 20.6797 5.77255 19.5859 7.06516 18.3828C7.1646 18.2734 7.36346 18.1641 7.46289 18.0547L7.56232 18.1641C7.86062 19.4766 8.45721 20.8984 9.15323 22.4297C9.94869 23.8516 10.8436 25.1641 11.7385 26.1484Z" fill="white"/>
<path d="M6.76705 28.5547L4.67898 29.8672C3.88352 28.9922 3.1875 27.8984 2.49148 26.5859C1.79545 25.3828 1.2983 24.0703 1 22.8672L3.08807 21.5547C3.38636 22.7578 3.88352 23.9609 4.57955 25.2734C5.27557 26.5859 6.07102 27.6797 6.76705 28.5547Z" fill="#FDCA0B"/>
<path d="M28.4427 25.0546C28.2439 25.0546 27.9456 25.0546 27.5479 25.0546C27.349 25.0546 27.1501 25.0546 26.9513 25.0546C23.4711 25.0546 16.8092 24.289 11.7382 26.1483C11.5393 26.1483 11.4399 26.2577 11.241 26.2577C11.0422 26.3671 10.9427 26.3671 10.8433 26.4765C9.35183 27.0233 7.95978 27.789 6.7666 28.4452" stroke="#222C33" stroke-miterlimit="10" stroke-linecap="round" stroke-linejoin="round"/>
<path d="M3.1875 21.6641C4.48011 20.7891 5.87216 19.6953 7.16477 18.4922C7.26421 18.3828 7.46307 18.2734 7.5625 18.1641C11.8381 13.8984 14.6222 6.67969 16.3125 3.61719C16.5114 3.28906 16.6108 3.07031 16.8097 2.85156" stroke="#222C33" stroke-miterlimit="10" stroke-linecap="round" stroke-linejoin="round"/>
<path d="M7.5625 18.1641C7.8608 19.4766 8.45739 20.8984 9.15341 22.4297C9.94886 23.8516 10.7443 25.1641 11.6392 26.1484" stroke="#222C33" stroke-miterlimit="10" stroke-linecap="round" stroke-linejoin="round"/>
<path d="M3.1875 21.6641C3.4858 22.8672 3.98295 24.0703 4.67898 25.3828C5.375 26.6953 6.07102 27.7891 6.86648 28.6641" stroke="#222C33" stroke-miterlimit="10" stroke-linecap="round" stroke-linejoin="round"/>
<path d="M1 22.9766C1.2983 24.1797 1.79545 25.3828 2.49148 26.6953C3.1875 27.8984 3.88352 28.9922 4.67898 29.9766" stroke="#222C33" stroke-miterlimit="10" stroke-linecap="round" stroke-linejoin="round"/>
<path d="M4.67871 29.8672L6.76678 28.5547" stroke="#222C33" stroke-miterlimit="10" stroke-linecap="round" stroke-linejoin="round"/>
<path d="M1 22.9766L3.1875 21.6641" stroke="#222C33" stroke-miterlimit="10" stroke-linecap="round" stroke-linejoin="round"/>
<path d="M16.2129 4.27419C16.2129 4.05544 16.2129 3.72732 16.3123 3.50857C16.4118 3.18044 16.5112 2.96169 16.8095 2.74294C18.4004 1.75857 23.0737 7.22732 25.5595 12.0398C28.0453 16.8523 30.1333 23.9617 28.5424 25.0554C28.3436 25.1648 28.0453 25.1648 27.6475 25.0554C27.4487 25.0554 27.2498 24.9461 27.051 24.8367" stroke="#222C33" stroke-miterlimit="10" stroke-linecap="round" stroke-linejoin="round"/>
<path d="M27.0507 24.8359C24.9626 23.6328 21.6814 19.4766 19.7922 15.7578C17.8035 12.0391 16.2126 6.89844 16.312 4.27344" stroke="#222C33" stroke-miterlimit="10" stroke-linecap="round" stroke-linejoin="round"/>
<path d="M16.0146 4.16406C16.1141 4.16406 16.1141 4.27344 16.2135 4.27344C18.3016 5.47656 21.5828 9.63281 23.472 13.3516C25.4607 17.0703 27.151 22.2109 26.9521 24.8359C26.9521 24.9453 26.9521 25.0547 26.9521 25.0547" stroke="#222C33" stroke-miterlimit="10" stroke-linecap="round" stroke-linejoin="round"/>
<path d="M10.8433 26.5859L17.0081 33.5859L13.2297 35.9922L6.7666 28.5547" stroke="#222C33" stroke-miterlimit="10" stroke-linecap="round" stroke-linejoin="round"/>
<path d="M24.1681 0.992188L22.5771 3.17969" stroke="#222C33" stroke-miterlimit="10" stroke-linecap="round" stroke-linejoin="round"/>
<path d="M31.9235 3.17969L26.2559 8.10156" stroke="#222C33" stroke-miterlimit="10" stroke-linecap="round" stroke-linejoin="round"/>
<path d="M35.9996 10.9453L29.2383 13.8984" stroke="#222C33" stroke-miterlimit="10" stroke-linecap="round" stroke-linejoin="round"/>
<path d="M33.7132 19.2578L31.1279 19.6953" stroke="#222C33" stroke-miterlimit="10" stroke-linecap="round" stroke-linejoin="round"/>
</svg>
