<svg width="37" height="37" viewBox="0 0 37 37" fill="none" xmlns="http://www.w3.org/2000/svg">
<path d="M35.5636 4.33182C35.8881 6.94363 34.9146 9.66426 33.0758 11.5143L32.5349 12.0584L30.4797 9.99074C31.5614 8.90248 31.5614 7.16128 30.4797 6.07303C29.3981 4.98477 27.6674 4.98477 26.5857 6.07303L24.6387 4.11417L25.1795 3.57004C27.1265 1.61118 29.7226 0.740582 32.3186 1.06706L34.0493 1.28471C34.6983 1.39353 35.2391 1.93766 35.3473 2.59061L35.5636 4.33182Z" fill="white"/>
<path d="M28.9648 15.7576L25.6116 31.102C25.287 32.6255 23.4482 33.1697 22.3665 32.0814L16.9581 26.6401L10.3599 20.0018L4.95145 14.5605C3.86977 13.4723 4.41061 11.6222 5.92496 11.2958L21.1767 7.81334L24.8544 4.11328L26.8014 6.07214C25.7197 7.16039 25.7197 8.9016 26.8014 9.98985C27.8831 11.0781 29.6138 11.0781 30.6955 9.98985L32.7506 12.0575L28.9648 15.7576Z" fill="white"/>
<path d="M30.5871 6.07205C31.6688 7.1603 31.6688 8.90151 30.5871 9.98976C29.5055 11.078 27.7748 11.078 26.6931 9.98976C25.6114 8.90151 25.6114 7.1603 26.6931 6.07205C27.7748 4.9838 29.5055 4.9838 30.5871 6.07205Z" fill="#158864"/>
<path d="M16.8505 26.5329L14.2545 30.9947L10.1441 26.8594C10.1441 26.8594 10.1441 26.8594 10.0359 26.7505C10.0359 26.7505 10.0359 26.7505 9.92777 26.6417L5.81738 22.5063L10.2523 19.8945L16.8505 26.5329Z" fill="white"/>
<path d="M10.1438 26.8581C15.2277 32.0817 6.14157 35.7818 2.46386 35.8906C5.49256 32.8435 6.46608 28.4905 0.625 30.9935C0.625 30.9935 4.30271 21.0904 10.0356 26.6405C10.0356 26.7493 10.0356 26.7493 10.1438 26.8581Z" fill="#FDCA0B"/>
<path d="M10.3599 20.0029L4.95145 14.5616C3.86977 13.4734 4.41061 11.6233 5.92496 11.2969L21.1767 7.81445" stroke="#222C33" stroke-miterlimit="10" stroke-linecap="round" stroke-linejoin="round"/>
<path d="M28.9647 15.7598L25.6115 31.1041C25.2869 32.6277 23.4481 33.1718 22.3664 32.0836L16.958 26.6423" stroke="#222C33" stroke-miterlimit="10" stroke-linecap="round" stroke-linejoin="round"/>
<path d="M10.0359 26.7511L5.81738 22.5069L10.3604 20.0039L16.8505 26.5334L14.3627 30.9953L10.1441 26.8599" stroke="#222C33" stroke-miterlimit="10" stroke-linecap="round" stroke-linejoin="round"/>
<path d="M10.1438 26.8587C10.0356 26.7498 10.0356 26.7498 10.0356 26.7498C4.41088 21.1997 0.625 31.1028 0.625 31.1028C6.46608 28.5999 5.49256 32.8441 2.46386 36C6.24974 35.7823 15.2277 32.0823 10.1438 26.8587Z" stroke="#222C33" stroke-miterlimit="10" stroke-linecap="round" stroke-linejoin="round"/>
<path d="M22.3672 22.2889L28.8573 15.7594L32.535 12.0593L33.0758 11.5152C34.9147 9.55633 35.8882 6.94452 35.5637 4.33271L35.4555 2.59151C35.3474 1.93855 34.8065 1.39443 34.1575 1.2856L32.4268 1.06795C29.8308 0.741475 27.1266 1.7209 25.2877 3.57094L24.7469 4.11506L21.0692 7.81513L14.5791 14.3446" stroke="#222C33" stroke-miterlimit="10" stroke-linecap="round" stroke-linejoin="round"/>
<path d="M30.5871 9.99172C31.6688 8.90346 31.6688 7.16226 30.5871 6.074C29.5055 4.98575 27.7748 4.98575 26.6931 6.074C25.6114 7.16226 25.6114 8.90346 26.6931 9.99172C27.7748 11.08 29.5055 11.08 30.5871 9.99172Z" stroke="#222C33" stroke-miterlimit="10" stroke-linecap="round" stroke-linejoin="round"/>
</svg>
