<svg width="32" height="33" viewBox="0 0 32 33" fill="none" xmlns="http://www.w3.org/2000/svg">
<g id="Layer_2">
<g id="Group">
<path id="Vector" d="M14.4254 11.786H5.73084L2.79005 13.4787C2.02288 13.9995 1 13.3485 1 12.4371V2.80203C1 2.15102 1.51144 1.5 2.27861 1.5H14.4254C15.0647 1.5 15.704 2.02081 15.704 2.80203V10.484C15.704 11.135 15.1925 11.786 14.4254 11.786Z" stroke="#4C6372" stroke-width="2" stroke-miterlimit="10" stroke-linecap="round" stroke-linejoin="round"/>
<g id="Group_2">
<path id="Vector_2" d="M4.32457 7.87881C4.96011 7.87881 5.47532 7.35417 5.47532 6.70698C5.47532 6.0598 4.96011 5.53516 4.32457 5.53516C3.68903 5.53516 3.17383 6.0598 3.17383 6.70698C3.17383 7.35417 3.68903 7.87881 4.32457 7.87881Z" fill="#4C6372"/>
<path id="Vector_3" d="M8.28844 7.87881C8.92398 7.87881 9.43919 7.35417 9.43919 6.70698C9.43919 6.0598 8.92398 5.53516 8.28844 5.53516C7.6529 5.53516 7.1377 6.0598 7.1377 6.70698C7.1377 7.35417 7.6529 7.87881 8.28844 7.87881Z" fill="#4C6372"/>
<path id="Vector_4" d="M12.3802 7.87881C13.0158 7.87881 13.531 7.35417 13.531 6.70698C13.531 6.0598 13.0158 5.53516 12.3802 5.53516C11.7447 5.53516 11.2295 6.0598 11.2295 6.70698C11.2295 7.35417 11.7447 7.87881 12.3802 7.87881Z" fill="#4C6372"/>
</g>
</g>
<g id="Group_3">
<path id="Vector_5" d="M12.5061 28.7117H24.1415L28.4887 31.3158C29.3837 31.8366 30.4066 31.1856 30.4066 30.1439V16.6028C30.4066 15.8216 29.8952 15.3008 29.128 15.3008H12.5061C11.739 15.3008 11.2275 15.8216 11.2275 16.6028V27.4097C11.2275 28.0607 11.739 28.7117 12.5061 28.7117Z" stroke="#4C6372" stroke-width="2" stroke-miterlimit="10" stroke-linecap="round" stroke-linejoin="round"/>
<g id="Group_4">
<path id="Vector_6" d="M15.9583 23.3736C16.6644 23.3736 17.2369 22.7907 17.2369 22.0716C17.2369 21.3525 16.6644 20.7695 15.9583 20.7695C15.2521 20.7695 14.6797 21.3525 14.6797 22.0716C14.6797 22.7907 15.2521 23.3736 15.9583 23.3736Z" fill="#4C6372"/>
<path id="Vector_7" d="M20.8167 23.3736C21.5228 23.3736 22.0953 22.7907 22.0953 22.0716C22.0953 21.3525 21.5228 20.7695 20.8167 20.7695C20.1105 20.7695 19.5381 21.3525 19.5381 22.0716C19.5381 22.7907 20.1105 23.3736 20.8167 23.3736Z" fill="#4C6372"/>
<path id="Vector_8" d="M25.6761 23.3736C26.3822 23.3736 26.9547 22.7907 26.9547 22.0716C26.9547 21.3525 26.3822 20.7695 25.6761 20.7695C24.9699 20.7695 24.3975 21.3525 24.3975 22.0716C24.3975 22.7907 24.9699 23.3736 25.6761 23.3736Z" fill="#4C6372"/>
</g>
</g>
</g>
</svg>
