<svg width="84" height="58" viewBox="0 0 84 58" fill="none" xmlns="http://www.w3.org/2000/svg">
<g id="Group">
<path id="Vector" d="M55.7976 35.5715C55.7976 39.4076 54.4027 42.8949 51.6128 45.336C49.1717 47.7772 45.6843 49.5208 41.8483 49.5208C39.7559 49.5208 38.0122 49.1721 36.2686 48.4746C34.5249 47.7772 33.13 46.731 31.735 45.336C29.2939 42.8949 27.899 39.4076 27.899 35.5715V34.874L19.1807 31.3867V35.2228C19.1807 41.5 21.6218 47.0797 25.8066 51.2645C29.9914 55.4493 35.5711 57.8904 41.8483 57.8904C44.9869 57.8904 47.7767 57.1929 50.5666 56.1467C53.3565 55.1005 55.7976 53.3569 57.89 51.2645C62.0748 47.0797 64.5159 41.5 64.5159 35.2228V31.7355L55.7976 35.2228V35.5715Z" fill="#158864"/>
<path id="Vector_2" d="M79.8598 14.9955L41.8479 0L0 16.3904L19.1803 24.0626L27.8986 27.2011L41.8479 32.7809L43.5916 32.0834L55.7972 27.5499L64.5155 24.0626L66.9567 23.0164L67.3054 22.6676H66.9567L55.4485 18.1341L41.8479 23.7138L23.7138 16.3904L41.8479 9.41578L60.3307 16.3904L66.9567 19.1803L71.8389 20.924V28.9448L75.675 27.5499L77.7674 26.5037V18.8316L83.6958 16.3904L79.8598 14.9955Z" fill="#158864"/>
</g>
</svg>
