<svg width="108" height="61" viewBox="0 0 108 61" fill="none" xmlns="http://www.w3.org/2000/svg">
<g clip-path="url(#clip0_2593_15908)">
<path d="M53.7569 54.4025C67.1267 54.4025 77.965 43.5642 77.965 30.1944C77.965 16.8247 67.1267 5.98633 53.7569 5.98633C40.3872 5.98633 29.5488 16.8247 29.5488 30.1944C29.5488 43.5642 40.3872 54.4025 53.7569 54.4025Z" fill="white"/>
<path d="M29.5492 30.1956H35.3064C35.3064 27.6292 35.792 25.2014 36.7631 23.0511C38.1504 19.7216 40.5088 16.9471 43.422 14.9355C46.3353 12.924 49.8729 11.8141 53.6879 11.8141C56.2544 11.8141 58.6822 12.2997 60.8325 13.2708C64.1619 14.6581 66.9365 17.0164 68.9481 19.9297C70.9596 22.843 72.0695 26.3806 72.0695 30.1956C72.0695 32.7621 71.5839 35.1899 70.6128 37.3401C69.2255 40.6696 66.8671 43.4442 63.9538 45.4557C61.0405 47.4673 57.503 48.5771 53.6879 48.5771C51.1215 48.5771 48.6937 48.0916 46.5434 47.1205C43.214 45.7332 40.4394 43.3748 38.4278 40.4615C36.4163 37.5482 35.3064 34.0107 35.3064 30.1956H29.5492H23.792C23.792 34.2881 24.6244 38.2419 26.1504 41.8488C28.4394 47.2592 32.2544 51.7679 36.9712 55.028C41.7573 58.2881 47.5145 60.1609 53.7573 60.1609C57.8498 60.1609 61.8036 59.3286 65.4105 57.8026C70.8209 55.5135 75.3296 51.6985 78.5897 46.9818C81.8498 42.1956 83.7226 36.4384 83.7226 30.1956C83.7226 26.1031 82.8903 22.1494 81.3642 18.5425C79.0752 13.132 75.2602 8.62338 70.5434 5.36326C65.7573 2.10315 59.9307 0.160949 53.7573 0.230313C49.6648 0.230313 45.7111 1.06268 42.1041 2.58869C36.6937 4.87771 32.1851 8.69274 28.9249 13.4095C25.6648 18.1956 23.792 23.9529 23.792 30.1956H29.5492Z" fill="#158864"/>
<path d="M68.2539 5.98633C81.6412 5.98633 92.462 16.8071 92.462 30.1944C92.462 43.5817 81.6412 54.4025 68.2539 54.4025" fill="white"/>
<path d="M68.2539 11.744C70.8204 11.744 73.2481 12.2295 75.3984 13.2006C78.7279 14.5879 81.5025 16.9463 83.514 19.8596C85.5256 22.7729 86.6354 26.3104 86.6354 30.1255C86.6354 32.692 86.1499 35.1197 85.1788 37.27C83.7915 40.5995 81.4331 43.374 78.5198 45.3856C75.6065 47.3972 72.0689 48.507 68.2539 48.507V60.0908C72.3464 60.0908 76.3001 59.2584 79.9071 57.7324C85.3175 55.4434 89.8262 51.6284 93.0863 46.9116C96.3464 42.1255 98.2192 36.3683 98.2192 30.1255C98.2192 26.033 97.3869 22.0792 95.8608 18.4723C93.5718 13.0619 89.7568 8.55322 85.04 5.2931C80.2539 2.03299 74.4967 0.160156 68.2539 0.160156V11.744Z" fill="#158864"/>
<mask id="mask0_2593_15908" style="mask-type:luminance" maskUnits="userSpaceOnUse" x="90" y="3" width="18" height="54">
<path d="M107.515 3.62891H90.1045V56.6231H107.515V3.62891Z" fill="white"/>
</mask>
<g mask="url(#mask0_2593_15908)">
<path d="M75.5381 5.98633C88.9254 5.98633 99.7462 16.8071 99.7462 30.1944C99.7462 43.5817 88.9254 54.4025 75.5381 54.4025" fill="white"/>
</g>
<mask id="mask1_2593_15908" style="mask-type:luminance" maskUnits="userSpaceOnUse" x="90" y="3" width="18" height="54">
<path d="M107.515 3.62891H90.1045V56.6231H107.515V3.62891Z" fill="white"/>
</mask>
<g mask="url(#mask1_2593_15908)">
<path d="M75.5381 11.744C78.1046 11.744 80.5323 12.2295 82.6826 13.2006C86.0121 14.5879 88.7866 16.9463 90.7982 19.8596C92.8098 22.7729 93.9196 26.3104 93.9196 30.1255C93.9196 32.692 93.434 35.1197 92.4629 37.27C91.0757 40.5995 88.7173 43.374 85.804 45.3856C82.8907 47.3972 79.3531 48.507 75.5381 48.507V60.0908C79.6306 60.0908 83.5843 59.2584 87.1913 57.7324C92.6017 55.4434 97.1103 51.6284 100.37 46.9116C103.631 42.1255 105.503 36.3683 105.503 30.1255C105.503 26.033 104.671 22.0792 103.145 18.4723C100.856 13.0619 97.041 8.55322 92.3242 5.2931C87.5381 2.03299 81.7809 0.160156 75.5381 0.160156V11.744Z" fill="#158864"/>
</g>
<path d="M39.2598 54.3341C25.8726 54.3341 15.0518 43.5133 15.0518 30.1261C15.0518 16.7388 25.8726 5.91797 39.2598 5.91797" fill="white"/>
<path d="M39.2602 48.5763C36.6938 48.5763 34.266 48.0908 32.1157 47.1197C28.7863 45.7324 26.0117 43.374 24.0001 40.4607C21.9886 37.5474 20.8787 34.0099 20.8787 30.1948C20.8787 27.6284 21.3643 25.2006 22.3354 23.0503C23.7227 19.7209 26.081 16.9463 28.9943 14.9347C31.9076 12.9232 35.4452 11.8133 39.2602 11.8133V0.160156C35.1678 0.160156 31.214 0.992526 27.6071 2.51854C22.1967 4.80756 17.6186 8.62258 14.4279 13.3393C11.1678 18.1255 9.29492 23.8827 9.29492 30.1255C9.29492 34.218 10.1273 38.1717 11.6533 41.7787C13.9423 47.1891 17.7574 51.6977 22.4741 54.9578C27.2602 58.218 33.0175 60.0908 39.2602 60.0908V48.5763Z" fill="#158864"/>
<mask id="mask2_2593_15908" style="mask-type:luminance" maskUnits="userSpaceOnUse" x="0" y="3" width="18" height="54">
<path d="M17.4104 3.62891H0V56.6231H17.4104V3.62891Z" fill="white"/>
</mask>
<g mask="url(#mask2_2593_15908)">
<path d="M31.9766 54.3341C18.5894 54.3341 7.76855 43.5133 7.76855 30.1261C7.76855 16.7388 18.5894 5.91797 31.9766 5.91797" fill="white"/>
</g>
<mask id="mask3_2593_15908" style="mask-type:luminance" maskUnits="userSpaceOnUse" x="0" y="3" width="18" height="54">
<path d="M17.4104 3.62891H0V56.6231H17.4104V3.62891Z" fill="white"/>
</mask>
<g mask="url(#mask3_2593_15908)">
<path d="M31.977 48.5763C29.4106 48.5763 26.9828 48.0908 24.8325 47.1197C21.503 45.7324 18.7285 43.374 16.7169 40.4607C14.7054 37.5474 13.5955 34.0099 13.5955 30.1948C13.5955 27.6284 14.0811 25.2006 15.0522 23.0503C16.4395 19.7209 18.7978 16.9463 21.7111 14.9347C24.6244 12.9232 28.162 11.8133 31.977 11.8133V0.160156C27.8845 0.160156 23.9308 0.992526 20.3239 2.51854C14.9135 4.80756 10.4048 8.62258 7.14467 13.3393C3.88455 18.1255 2.01172 23.8827 2.01172 30.1255C2.01172 34.218 2.84409 38.1717 4.3701 41.7787C6.65912 47.1891 10.4741 51.6977 15.1909 54.9578C19.977 58.218 25.7343 60.0908 31.977 60.0908V48.5763Z" fill="#158864"/>
</g>
</g>
<defs>
<clipPath id="clip0_2593_15908">
<rect width="107.514" height="60" fill="white" transform="translate(0 0.160156)"/>
</clipPath>
</defs>
</svg>
