<svg width="401" height="259" viewBox="0 0 401 259" fill="none" xmlns="http://www.w3.org/2000/svg">
<g clip-path="url(#clip0_3025_62626)">
<path d="M83.2402 141.482C83.2402 139.803 81.8666 138.43 80.1878 138.43H72.2514V149.418H83.2402V141.482Z" fill="white"/>
<path d="M53.174 171.549H61.1104V160.561H50.1216V168.497C50.1216 170.176 51.4952 171.549 53.174 171.549Z" fill="white"/>
<path d="M53.174 138.43C51.4952 138.43 50.1216 139.803 50.1216 141.482V149.418H61.1104V138.43H53.174Z" fill="white"/>
<path d="M83.2402 160.561H72.2514V171.549H80.1878C81.8666 171.549 83.2402 170.176 83.2402 168.497V160.561Z" fill="white"/>
<path d="M61.1098 160.561H72.0986V171.549H61.1098V160.561Z" fill="white"/>
<path d="M72.2514 149.418H83.2402V160.407H72.2514V149.418Z" fill="white"/>
<path d="M61.1098 149.418H72.0986V160.407H61.1098V149.418Z" fill="white"/>
<path d="M50.1216 149.418H61.1104V160.407H50.1216V149.418Z" fill="#158864"/>
<path d="M61.1098 138.43H72.0986V149.418H61.1098V138.43Z" fill="white"/>
<path d="M61.1103 138.43H53.1739C51.4951 138.43 50.1215 139.803 50.1215 141.482V149.418V160.407V168.344C50.1215 170.023 51.4951 171.396 53.1739 171.396H61.1103H72.0991H80.0354C81.7143 171.396 83.0879 170.023 83.0879 168.344V160.407V149.418V141.482C83.0879 139.803 81.7143 138.43 80.0354 138.43H72.0991H61.1103Z" stroke="#222C33" stroke-width="0.75" stroke-miterlimit="10" stroke-linecap="round" stroke-linejoin="round"/>
<path d="M72.0986 138.43V149.418V160.56V171.549" stroke="#222C33" stroke-width="0.75" stroke-miterlimit="10" stroke-linecap="round" stroke-linejoin="round"/>
<path d="M61.1104 138.43V149.418V160.56V171.549" stroke="#222C33" stroke-width="0.75" stroke-miterlimit="10" stroke-linecap="round" stroke-linejoin="round"/>
<path d="M50.1212 160.561H61.11H72.0988H83.2402" stroke="#222C33" stroke-width="0.75" stroke-miterlimit="10" stroke-linecap="round" stroke-linejoin="round"/>
<path d="M50.1212 149.418H61.11H72.0988H83.2402" stroke="#222C33" stroke-width="0.75" stroke-miterlimit="10" stroke-linecap="round" stroke-linejoin="round"/>
<path d="M132.079 69.5971C129.214 69.5971 126.89 67.2738 126.89 64.4079C126.89 61.542 129.214 59.2188 132.079 59.2188C134.945 59.2188 137.269 61.542 137.269 64.4079C137.269 67.2738 134.945 69.5971 132.079 69.5971Z" fill="#FDCA0B" stroke="#222C33" stroke-width="0.75" stroke-miterlimit="10" stroke-linecap="round" stroke-linejoin="round"/>
<path d="M143.068 64.4082H176.188" stroke="#222C33" stroke-width="0.75" stroke-miterlimit="10" stroke-linecap="round" stroke-linejoin="round"/>
<path d="M184.734 64.4082H190.229" stroke="#222C33" stroke-width="0.75" stroke-miterlimit="10" stroke-linecap="round" stroke-linejoin="round"/>
<path d="M177.256 112.026C185.803 66.6974 225.79 32.3574 273.56 32.3574C327.589 32.3574 371.544 76.3126 371.544 130.341C371.544 184.369 327.589 228.324 273.56 228.324C252.804 228.324 233.573 221.914 217.853 210.925C192.365 193.221 175.577 163.613 175.577 130.341C175.577 124.083 176.035 117.979 177.256 112.026ZM233.116 182.538C244.257 191.237 258.298 196.426 273.56 196.426C310.037 196.426 339.493 166.97 339.493 130.494C339.493 94.0168 310.037 64.5607 273.56 64.5607C237.847 64.5607 208.696 92.9485 207.628 128.509C207.628 129.12 207.628 129.883 207.628 130.494C207.628 151.555 217.548 170.481 233.116 182.538Z" fill="#158864" stroke="#222C33" stroke-width="0.75" stroke-miterlimit="10" stroke-linecap="round" stroke-linejoin="round"/>
<path d="M102.471 123.625L104.303 121.793C104.608 121.488 104.913 121.335 105.371 121.335H120.481C121.396 121.335 122.007 120.725 122.007 119.809V100.731C122.007 99.8156 121.396 99.2051 120.481 99.2051H101.403C100.487 99.2051 99.8766 99.8156 99.8766 100.731V122.556C99.8766 123.93 101.403 124.54 102.471 123.625Z" fill="#FDCA0B" stroke="#222C33" stroke-width="0.75" stroke-miterlimit="10" stroke-linecap="round" stroke-linejoin="round"/>
<path d="M146.579 108.972H115.139C114.223 108.972 113.613 108.362 113.613 107.446V87.1473C113.613 86.2316 114.223 85.6211 115.139 85.6211H146.579C147.495 85.6211 148.105 86.2316 148.105 87.1473V107.446C148.105 108.362 147.495 108.972 146.579 108.972Z" fill="white" stroke="#222C33" stroke-width="0.75" stroke-miterlimit="10" stroke-linecap="round" stroke-linejoin="round"/>
<path d="M128.57 94.7798H143.069C143.526 94.7798 143.984 94.322 143.984 93.8641V93.2536C143.984 92.7958 143.526 92.3379 143.069 92.3379H128.57C128.112 92.3379 127.654 92.7958 127.654 93.2536V93.8641C127.654 94.322 128.112 94.7798 128.57 94.7798Z" fill="#222C33" stroke="#222C33" stroke-width="0.75" stroke-miterlimit="10" stroke-linecap="round" stroke-linejoin="round"/>
<path d="M121.854 99.9693H143.221C143.679 99.9693 144.137 99.5114 144.137 99.0536V98.4431C144.137 97.9852 143.679 97.5273 143.221 97.5273H121.854C121.396 97.5273 120.938 97.9852 120.938 98.4431V99.0536C120.786 99.5114 121.243 99.9693 121.854 99.9693Z" fill="#222C33" stroke="#222C33" stroke-width="0.75" stroke-miterlimit="10" stroke-linecap="round" stroke-linejoin="round"/>
<path d="M338.883 71.2751L338.578 70.8172C340.104 70.6646 341.63 70.6646 343.156 70.6646C345.903 69.9015 348.956 67.7648 348.956 65.0176C359.639 70.512 378.412 106.989 385.738 145.297C386.043 146.67 386.196 147.891 386.501 149.265C377.649 152.318 350.94 145.297 350.94 145.297C345.293 140.566 338.73 135.529 332.167 130.798L328.352 103.478C318.431 107.294 308.053 110.804 298.591 113.094C288.06 115.536 278.902 116.146 272.95 113.246C270.05 111.873 267.913 109.583 266.845 106.226C265.929 103.478 269.134 91.8791 291.723 91.8791C292.944 91.4212 294.165 90.8107 295.385 90.2003C311.106 82.7218 326.368 73.2592 338.883 71.2751Z" fill="white"/>
<path d="M241.815 75.7012V78.1431V258.543H238V228.171V79.5167V75.7012C238.763 75.7012 239.373 75.8538 240.289 75.8538C240.747 75.8538 241.205 75.7012 241.815 75.7012Z" fill="#798A95"/>
<path d="M351.704 146.06C362.387 154.913 370.018 162.086 370.018 162.086L371.697 158.27C371.85 158.118 363.303 151.555 351.704 146.06ZM350.788 145.297C350.788 145.297 377.497 152.318 386.349 149.266C390.164 171.396 388.791 191.847 376.581 201.157C371.087 205.43 363.913 207.109 360.098 206.804C359.487 206.804 358.877 206.651 358.419 206.499C336.289 198.715 312.174 173.38 294.165 144.382C293.249 142.703 292.334 141.177 291.418 139.803C292.334 141.329 293.249 142.855 294.165 144.382C306.07 165.291 322.095 208.178 323.163 211.23C322.705 210.467 319.348 208.941 314.464 208.025C312.327 207.567 309.885 207.262 307.138 207.262C305.306 207.262 303.475 207.415 301.796 207.567C295.691 208.33 291.265 210.009 291.265 210.62C291.265 210.62 279.513 181.927 272.035 155.676C265.777 133.545 262.725 113.094 272.493 113.094C278.445 115.994 287.602 115.383 298.133 112.941V113.094C306.985 114.468 319.5 121.946 331.71 130.646C338.578 135.529 345.141 140.566 350.788 145.297Z" fill="#FDCA0B"/>
<path d="M191.908 41.3615C192.976 39.6827 194.045 36.7829 194.503 33.4252C195.113 29.457 194.96 26.0993 194.045 24.2679C193.739 23.6574 193.434 23.1995 192.976 23.0469L195.418 23.6574L195.724 23.81C196.029 23.9626 196.334 24.2679 196.487 24.5731C196.487 24.7257 196.639 24.7257 196.639 24.8783C197.402 26.5572 197.708 30.0675 197.097 33.8831C196.639 36.7829 195.876 39.2248 194.96 40.9037C194.655 41.5142 194.35 41.972 194.045 42.2773C194.045 42.4299 193.892 42.4299 193.739 42.5825C193.282 43.0404 192.824 43.193 192.518 43.0404C192.061 43.0404 191.755 42.5825 191.45 42.1247C191.603 41.972 191.755 41.6668 191.908 41.3615Z" fill="#222C33"/>
<path d="M251.889 61.2031C251.889 61.3557 251.889 61.661 251.889 61.9662C251.889 62.4241 251.889 63.0346 251.889 63.1872C251.889 66.3923 246.7 69.1395 240.289 69.1395C233.879 69.1395 228.69 66.5449 228.69 63.1872C228.69 62.882 228.69 62.1189 228.69 61.661C228.69 61.3558 228.69 61.2031 228.69 61.2031C228.69 61.5084 228.69 61.9662 228.843 62.2715C229.911 65.0187 234.642 67.1554 240.289 67.1554C245.936 67.1554 250.668 65.0187 251.736 62.2715C251.736 61.8136 251.736 61.5084 251.889 61.2031Z" fill="#222C33"/>
<path d="M344.072 58.303C344.225 58.4556 344.377 58.7608 344.53 58.9134L341.477 60.5923C341.02 61.2028 340.409 61.8133 339.951 62.4238C338.578 63.95 337.357 65.3236 335.983 66.3919C334.152 68.0708 332.32 69.1391 330.794 69.597C329.42 70.0549 328.199 70.0549 327.284 69.597C326.215 68.9865 325.452 67.7655 325.147 66.3919C324.689 64.8657 324.536 63.0342 324.536 61.508C324.536 60.5923 324.231 57.3872 324.994 53.419C325.605 49.7561 327.131 45.1774 330.336 41.0566C335.83 41.6671 338.883 45.9406 340.104 48.3825C340.409 48.8404 341.172 48.8404 341.325 48.2299C342.241 45.7879 344.225 44.4143 345.751 44.7196C347.277 45.0248 348.498 46.8563 348.498 48.6878C348.498 50.9771 346.514 52.5033 344.835 53.419C343.462 54.1822 343.004 55.861 343.767 57.2346C343.614 57.5398 343.919 57.9977 344.072 58.303Z" fill="white"/>
<path d="M251.888 61.9654C252.041 62.2706 251.888 64.1021 251.888 64.4074C251.888 66.8493 249.141 68.8334 245.02 69.7491C243.647 70.0544 241.968 70.207 240.289 70.207C238.61 70.207 236.931 70.0544 235.558 69.7491C231.437 68.8334 228.69 66.8493 228.69 64.4074C228.69 64.1021 228.537 61.9654 228.69 61.6602C228.69 62.2706 228.69 63.0338 228.69 63.1864C228.69 66.3914 233.879 69.1386 240.289 69.1386C246.699 69.1386 251.888 66.5441 251.888 63.1864C251.736 62.8811 251.888 62.4233 251.888 61.9654Z" fill="#222C33"/>
<path d="M263.64 54.1816L324.994 66.3914C325.452 67.765 326.063 69.1386 327.131 69.5965C328.047 70.0544 329.268 70.0544 330.641 69.5965L331.252 72.0384C319.195 75.0909 305.154 82.2641 290.807 87.9112L252.194 68.8334C253.415 69.1386 256.62 66.6967 259.367 63.339C261.809 60.7444 263.64 57.2341 263.64 54.1816Z" fill="white"/>
<path d="M277.987 51.13H278.292L276.613 50.9774L242.426 47.4671L224.111 45.6356L193.74 42.5831C193.892 42.5831 193.892 42.4305 194.045 42.2779C194.35 41.9727 194.655 41.3622 194.961 40.9043L224.111 43.8041L242.426 45.6356L276.613 49.1459H277.224L279.208 49.4511C278.903 50.5195 278.445 51.13 277.987 51.13Z" fill="#222C33"/>
<path d="M277.986 51.1297C278.444 51.1297 278.902 50.5192 279.36 49.4509C279.665 48.6878 279.818 47.772 279.97 46.8563C280.276 44.7196 280.123 42.7355 279.513 42.2776C279.513 42.2776 279.36 42.2776 279.36 42.125L282.412 42.7355C282.565 42.7355 282.718 42.8881 282.718 43.0407C283.175 43.6512 283.328 45.4827 283.023 47.3142C282.87 48.2299 282.718 49.1456 282.412 49.7561C282.107 50.6718 281.649 51.2823 281.344 51.435L278.444 51.1297H277.986Z" fill="#222C33"/>
<path d="M338.577 70.8167C336.288 71.1219 333.846 71.4272 331.404 72.0377L330.793 69.5957C332.32 69.1378 334.151 67.9168 335.983 66.3906L337.356 68.8326L338.577 70.8167Z" fill="white"/>
<path d="M240.136 72.6482C241.205 72.6482 242.273 72.4955 243.189 72.3429C245.02 72.0377 246.241 71.4272 246.241 70.8167V73.8691C246.241 74.6322 244.41 75.3954 241.815 75.548C241.357 75.548 240.747 75.548 240.136 75.548C239.373 75.548 238.61 75.548 237.847 75.3954C235.558 75.0901 234.031 74.4796 234.031 73.7165V70.6641C234.031 71.2746 235.252 71.885 237.084 72.1903C238 72.6482 239.068 72.6482 240.136 72.6482Z" fill="#798A95"/>
<path d="M283.023 47.3144C283.328 45.3303 283.175 43.6515 282.717 43.041L321.941 50.8247C321.636 50.8247 321.178 51.8931 320.873 53.4193C320.873 53.7246 320.72 54.0298 320.72 54.3351L282.26 49.909C282.717 49.1459 282.87 48.2302 283.023 47.3144Z" fill="white"/>
<path d="M338.578 70.8184L338.883 71.2762C326.368 73.2603 311.106 82.7229 295.233 90.2014L290.959 88.0647C305.306 82.265 319.347 75.0918 331.404 72.192C333.846 71.5815 336.288 71.1236 338.578 70.8184Z" fill="#222C33"/>
<path d="M400.39 228.172H319.347C364.981 193.374 398.711 226.493 400.39 228.172Z" fill="white"/>
<path d="M371.85 158.118L370.171 161.934C370.171 161.934 362.54 154.76 351.856 145.908C363.303 151.555 371.85 158.118 371.85 158.118Z" fill="#222C33"/>
<path d="M364.219 45.4824C364.371 47.4665 360.25 50.2137 353.688 51.282C354.756 55.0976 353.993 58.7605 351.704 60.592C351.551 60.7446 349.262 62.2708 347.125 61.5077C346.667 61.3551 346.362 61.2025 346.057 60.8972C345.599 60.4394 345.141 59.8289 344.53 59.0658C344.378 58.9131 344.225 58.6079 344.072 58.4553C343.767 58.15 343.615 57.8448 343.462 57.3869C342.699 56.0133 343.309 54.3345 344.53 53.5714C346.209 52.6556 348.041 51.1294 348.193 48.8401C348.193 47.0086 346.972 45.1771 345.446 44.8719C343.92 44.5666 341.936 45.9402 341.02 48.3822C340.867 48.9927 340.104 48.9927 339.799 48.5348C338.425 45.9402 335.526 41.8194 330.031 41.209C339.036 29.457 353.688 31.7464 355.366 31.7464C361.319 31.7464 357.961 36.0198 354.756 39.6827C354.145 40.2932 354.603 41.209 355.366 41.3616C359.64 42.2773 364.066 43.8035 364.219 45.4824Z" fill="#222C33"/>
<path d="M400.39 228.172C398.711 226.493 364.981 193.374 319.5 228.172C319.5 228.172 319.5 224.966 319.042 220.998C334.304 209.399 348.345 206.041 360.25 206.957C383.906 208.789 399.321 226.951 400.39 228.172Z" fill="#222C33"/>
<path d="M348.804 65.017C348.804 67.7642 345.751 70.0535 343.004 70.664C341.478 70.664 339.952 70.664 338.425 70.8167L337.204 68.8326L339.952 62.4224C340.409 61.8119 341.02 61.2014 341.478 60.591L344.53 58.9121C344.988 59.6752 345.446 60.2857 346.057 60.7436C346.514 61.9646 347.43 63.6434 348.804 65.017Z" fill="white"/>
<path d="M339.951 62.4238L337.509 68.834L336.136 66.392C337.204 65.3236 338.578 63.9501 339.951 62.4238Z" fill="#222C33"/>
<path d="M323.315 211.536C323.773 212.909 321.331 213.825 317.515 214.283C316.752 211.841 315.837 209.704 314.616 208.025C319.347 208.941 322.705 210.467 323.315 211.23C323.315 211.383 323.315 211.383 323.315 211.536Z" fill="#222C33"/>
<path d="M321.179 56.0134L281.344 51.4347C281.65 51.2821 282.107 50.6716 282.413 49.7559L320.873 54.1819C320.721 55.2503 320.873 56.0134 321.179 56.0134Z" fill="#222C33"/>
<path d="M318.89 220.999C319.348 224.967 319.348 228.172 319.348 228.172H282.413C282.413 226.646 283.634 225.425 285.466 224.204C286.229 223.746 287.144 223.288 288.06 222.83C293.402 220.388 300.728 218.404 303.17 214.283C303.628 213.367 303.933 212.452 303.933 211.383L314.464 207.873C315.685 209.552 316.753 211.689 317.364 214.131C318.279 216.573 318.737 218.862 318.89 220.999Z" fill="#222C33"/>
<path d="M314.616 208.025L304.085 211.535L301.949 207.719C303.627 207.567 305.459 207.414 307.29 207.414C310.038 207.414 312.479 207.719 314.616 208.025Z" fill="#F0F8F5"/>
<path d="M302.101 207.721L304.237 211.536C304.237 212.605 303.932 213.52 303.474 214.436C297.522 213.826 292.333 212.605 291.57 210.773C291.57 210.01 295.843 208.331 302.101 207.721Z" fill="#222C33"/>
<path d="M269.592 156.592L288.212 222.983C287.296 223.441 286.38 223.899 285.617 224.356L241.815 78.1442V75.7023C244.409 75.5497 246.241 74.7865 246.241 74.0234L269.592 156.592Z" fill="#222C33"/>
<path d="M277.377 49.2987H276.766L242.579 45.7884L224.264 43.957L195.113 41.0571C196.029 39.3783 196.792 36.7837 197.25 34.0365C197.86 30.221 197.555 26.7107 196.792 25.0318C196.792 24.8792 196.792 24.8792 196.639 24.7266L279.361 42.2781H279.208L279.666 42.4307C280.276 42.8886 280.429 44.7201 280.124 47.0094C279.971 48.0778 279.666 48.8409 279.513 49.604L277.377 49.2987Z" fill="white"/>
<path d="M236.778 55.5552C232.505 52.3501 227.773 48.382 224.11 45.6348L242.425 47.4662L263.64 54.1816C263.64 57.2341 261.808 60.5917 259.519 63.4916C257.993 62.7285 256.009 61.6601 254.177 60.5918C252.956 59.8286 251.735 59.2181 250.972 58.9129H250.819C250.056 58.9129 249.293 58.7603 248.683 58.7603C245.935 58.6077 243.188 58.455 240.594 58.3024C239.831 57.6919 238.915 57.0814 238.152 56.4709C237.694 56.1657 237.236 55.8605 236.778 55.5552Z" fill="white"/>
<path d="M254.178 60.7441C256.009 61.6599 257.993 62.7282 259.52 63.644C256.925 67.0017 253.72 69.4436 252.346 69.1384L252.194 68.9857C252.041 68.8331 251.888 68.5279 251.888 68.07C251.736 65.0176 252.804 60.7441 254.178 60.7441Z" fill="#222C33"/>
<path d="M251.889 61.0494C251.889 61.202 251.736 61.0494 251.889 61.0494L240.289 61.5072L234.184 56.0128C235.1 55.7076 236.016 55.555 236.932 55.4023C237.39 55.7076 237.695 56.0128 238.153 56.3181C239.068 56.9286 239.832 57.5391 240.595 58.1495C243.342 58.3022 246.089 58.4548 248.684 58.6074C249.447 58.6074 250.21 58.76 250.82 58.76H250.973C251.583 59.6758 251.889 60.2863 251.889 61.0494Z" fill="#222C33"/>
<path d="M251.736 61.0502C251.736 61.5081 251.736 61.8133 251.583 62.1186C250.515 64.8658 245.784 67.0025 240.137 67.0025C234.49 67.0025 229.606 64.8658 228.69 62.1186C228.537 61.8133 228.537 61.3555 228.537 61.0502C228.537 58.9135 230.674 57.082 234.032 56.0137L240.137 61.5081L251.736 61.0502Z" fill="#D2D8DC"/>
<path d="M246.241 70.8184C246.241 71.4288 245.02 72.0393 243.189 72.3446C242.273 72.4972 241.205 72.6498 240.136 72.6498C239.068 72.6498 238 72.4972 237.084 72.3446C235.252 72.0393 234.031 71.4288 234.031 70.8184C234.031 70.3605 234.489 70.0552 235.405 69.75C236.779 70.0552 238.457 70.2079 240.136 70.2079C241.815 70.2079 243.494 70.0552 244.868 69.75C245.783 70.0552 246.241 70.5131 246.241 70.8184Z" fill="#798A95"/>
<path d="M238 75.7006V79.5162L197.555 226.644V228.17H194.961V226.339L234.184 73.8691C234.032 74.7849 235.711 75.3954 238 75.7006Z" fill="#222C33"/>
<path d="M194.197 24.2684C194.96 26.0999 195.265 29.6102 194.655 33.4257C194.197 36.7834 193.129 39.6832 192.06 41.3621L191.755 41.0568L165.656 38.4623C165.809 38.157 165.809 38.0044 165.962 37.6992C167.03 35.4098 167.793 32.51 168.404 29.1523C168.862 25.7946 169.014 22.7422 168.709 20.3002C168.556 19.2319 168.404 18.1635 168.098 17.4004L192.823 22.8948H192.976C193.434 23.0474 193.892 23.5053 194.197 24.2684Z" fill="white"/>
<path d="M191.602 41.2095L191.907 41.5148C191.755 41.82 191.602 41.9726 191.449 42.2779C190.991 42.7358 190.534 43.041 190.076 43.1936H189.771L164.283 40.599C164.74 40.1412 165.046 39.5307 165.351 38.7676L191.602 41.2095Z" fill="#222C33"/>
<path d="M165.504 38.4617C165.199 39.2248 164.741 39.8353 164.436 40.2932C163.52 41.5141 162.604 42.1246 161.841 41.972L158.636 41.5141C161.078 41.8194 163.978 36.1724 165.046 28.6939C166.115 21.2154 165.046 14.9579 162.604 14.5L165.809 14.9579C166.725 15.1105 167.336 16.0262 167.793 17.3998C168.099 18.1629 168.251 19.2313 168.404 20.2996C168.709 22.7416 168.709 25.794 168.099 29.1517C167.641 32.5094 166.725 35.4093 165.657 37.6986C165.657 38.0038 165.657 38.3091 165.504 38.4617Z" fill="#222C33"/>
<path d="M162.605 14.6523C165.047 14.9576 166.115 21.3677 165.047 28.8462C163.978 36.3247 161.078 41.9717 158.636 41.6665C156.194 41.3612 155.126 34.9511 156.194 27.4726C157.263 19.9941 160.163 14.1944 162.605 14.6523ZM163.215 28.5409C164.131 22.7413 163.673 17.7048 162.147 17.5521C160.62 17.3995 158.789 21.9782 157.873 27.7778C156.958 33.5775 157.415 38.614 158.942 38.7666C160.315 38.9193 162.299 34.3406 163.215 28.5409Z" fill="#222C33"/>
<path d="M162.146 17.4002C163.673 17.7054 164.13 22.5894 163.215 28.389C162.299 34.1886 160.468 38.7673 158.941 38.6147C157.415 38.3094 156.957 33.4255 157.873 27.6259C158.789 21.8262 160.62 17.2476 162.146 17.4002Z" fill="white"/>
<path d="M348.804 65.0176C359.64 70.512 378.412 106.989 385.738 145.297C386.044 146.67 386.196 147.891 386.501 149.265C390.164 171.395 388.791 191.847 376.581 201.157C371.087 205.43 363.913 207.109 360.098 206.804C359.487 206.804 358.877 206.651 358.419 206.498C336.289 198.715 312.174 173.379 294.165 144.381C293.249 142.855 292.334 141.329 291.418 139.802" stroke="#222C33" stroke-width="0.75" stroke-miterlimit="10" stroke-linecap="round" stroke-linejoin="round"/>
<path d="M291.57 139.955C292.486 141.329 293.401 142.855 294.317 144.534C306.222 165.443 322.247 208.33 323.315 211.382" stroke="#222C33" stroke-width="0.75" stroke-miterlimit="10" stroke-linecap="round" stroke-linejoin="round"/>
<path d="M272.798 113.246C263.03 113.246 266.082 133.697 272.34 155.828C279.666 182.079 291.57 210.772 291.57 210.772" stroke="#222C33" stroke-width="0.75" stroke-miterlimit="10" stroke-linecap="round" stroke-linejoin="round"/>
<path d="M323.315 211.535C323.315 211.382 323.315 211.382 323.315 211.535ZM323.315 211.535C323.315 211.382 323.315 211.382 323.315 211.382C322.858 210.619 319.5 209.093 314.616 208.177C312.479 207.719 310.037 207.414 307.29 207.414C305.459 207.414 303.627 207.567 301.948 207.719C295.843 208.482 291.417 210.161 291.417 210.772" stroke="#222C33" stroke-width="0.75" stroke-miterlimit="10" stroke-linecap="round" stroke-linejoin="round"/>
<path d="M319.5 228.172C319.5 228.172 319.5 224.966 319.042 220.998C318.737 218.862 318.279 216.42 317.669 214.283C316.905 211.841 315.99 209.704 314.769 208.025" stroke="#222C33" stroke-width="0.75" stroke-miterlimit="10" stroke-linecap="round" stroke-linejoin="round"/>
<path d="M304.085 211.535C304.085 212.604 303.78 213.519 303.322 214.435C300.88 218.556 293.554 220.54 288.212 222.982C287.297 223.44 286.381 223.898 285.618 224.355C283.786 225.424 282.565 226.645 282.565 228.324" stroke="#222C33" stroke-width="0.75" stroke-miterlimit="10" stroke-linecap="round" stroke-linejoin="round"/>
<path d="M304.085 211.536L314.616 208.025" stroke="#222C33" stroke-width="0.75" stroke-miterlimit="10" stroke-linecap="round" stroke-linejoin="round"/>
<path d="M301.948 207.414L302.101 207.719L304.085 211.535" stroke="#222C33" stroke-width="0.75" stroke-miterlimit="10" stroke-linecap="round" stroke-linejoin="round"/>
<path d="M323.315 211.535C323.773 212.909 321.331 213.824 317.515 214.282" stroke="#222C33" stroke-width="0.75" stroke-miterlimit="10" stroke-linecap="round" stroke-linejoin="round"/>
<path d="M303.322 214.434C297.37 213.824 292.181 212.603 291.418 210.771" stroke="#222C33" stroke-width="0.75" stroke-miterlimit="10" stroke-linecap="round" stroke-linejoin="round"/>
<path d="M350.94 72.3435C347.277 70.8173 343.157 70.512 338.883 71.2752C326.368 73.2592 311.106 82.7218 295.233 90.2003C294.012 90.8108 292.791 91.2687 291.57 91.8792C287.907 93.4054 284.397 94.9316 280.734 96.1526" stroke="#222C33" stroke-width="0.75" stroke-miterlimit="10" stroke-linecap="round" stroke-linejoin="round"/>
<path d="M291.57 91.7266C269.135 91.7266 265.777 103.326 266.693 106.073C267.761 109.431 269.898 111.72 272.798 113.094C278.75 115.994 287.907 115.383 298.438 112.941C307.901 110.804 318.279 107.141 328.2 103.326C332.473 101.647 336.746 99.9682 340.715 98.4419C342.546 97.6788 344.225 98.1367 345.141 98.1367" stroke="#222C33" stroke-width="0.75" stroke-miterlimit="10" stroke-linecap="round" stroke-linejoin="round"/>
<path d="M298.438 113.246C307.29 114.62 319.805 122.098 332.015 130.798C338.577 135.529 345.14 140.565 350.787 145.297C351.092 145.602 351.398 145.755 351.703 146.06C362.386 154.912 370.018 162.085 370.018 162.085" stroke="#222C33" stroke-width="0.75" stroke-miterlimit="10" stroke-linecap="round" stroke-linejoin="round"/>
<path d="M328.199 103.479L332.015 130.798" stroke="#222C33" stroke-width="0.75" stroke-miterlimit="10" stroke-linecap="round" stroke-linejoin="round"/>
<path d="M386.501 149.113C377.649 152.165 350.787 145.145 350.787 145.145" stroke="#222C33" stroke-width="0.75" stroke-miterlimit="10" stroke-linecap="round" stroke-linejoin="round"/>
<path d="M348.804 65.0176C348.804 67.7648 345.751 69.9015 343.004 70.6646C342.394 70.8172 341.783 70.8172 341.325 70.8172" stroke="#222C33" stroke-width="0.75" stroke-miterlimit="10" stroke-linecap="round" stroke-linejoin="round"/>
<path d="M348.804 65.0178C347.43 63.6442 346.514 61.9654 345.904 60.5918" stroke="#222C33" stroke-width="0.75" stroke-miterlimit="10" stroke-linecap="round" stroke-linejoin="round"/>
<path d="M355.366 31.7464C353.687 31.7464 339.036 29.457 330.031 41.209C326.826 45.3298 325.3 49.9084 324.689 53.5714C323.926 57.5395 324.231 60.592 324.231 61.6603C324.384 63.1866 324.537 65.018 324.842 66.5442C325.3 67.9178 325.91 69.2915 326.978 69.7493C327.894 70.2072 329.115 70.2072 330.489 69.7493C332.015 69.2915 333.846 68.0705 335.678 66.5442C336.899 65.4759 338.273 64.1023 339.646 62.5761C340.104 61.9656 340.714 61.3551 341.172 60.7446" stroke="#222C33" stroke-width="0.75" stroke-miterlimit="10" stroke-linecap="round" stroke-linejoin="round"/>
<path d="M330.031 41.2084C335.526 41.8189 338.578 46.0923 339.799 48.5343C340.104 48.9921 340.867 48.9921 341.02 48.3816C341.936 45.9397 343.92 44.5661 345.446 44.8713C346.972 45.1766 348.193 47.008 348.193 48.8395C348.193 51.1288 346.209 52.6551 344.53 53.5708C343.157 54.3339 342.699 56.0128 343.462 57.3864C343.615 57.6916 343.92 57.9968 344.072 58.4547C344.225 58.6073 344.378 58.9126 344.53 59.0652C344.988 59.8283 345.446 60.4388 346.057 60.8967C346.362 61.2019 346.667 61.3545 347.125 61.5072C349.262 62.2703 351.551 60.744 351.704 60.5914C353.993 58.9126 354.909 55.2496 353.688 51.2815C360.25 50.3657 364.371 47.6185 364.219 45.4818C364.066 43.803 359.64 42.2768 355.519 41.5136C354.756 41.361 354.451 40.4453 354.909 39.8348C357.961 36.1719 361.319 31.8984 355.519 31.8984" stroke="#222C33" stroke-width="0.75" stroke-miterlimit="10" stroke-linecap="round" stroke-linejoin="round"/>
<path d="M335.983 66.3906L337.357 68.8326L338.578 70.8167L338.883 71.2745" stroke="#222C33" stroke-width="0.75" stroke-miterlimit="10" stroke-linecap="round" stroke-linejoin="round"/>
<path d="M339.951 62.4238L337.357 68.834" stroke="#222C33" stroke-width="0.75" stroke-miterlimit="10" stroke-linecap="round" stroke-linejoin="round"/>
<path d="M318.889 220.997C334.152 209.245 348.193 206.04 360.097 206.956C383.754 208.634 399.321 226.949 400.39 228.017" stroke="#222C33" stroke-width="0.75" stroke-miterlimit="10" stroke-linecap="round" stroke-linejoin="round"/>
<path d="M319.5 228.172C364.981 193.374 398.863 226.493 400.39 228.172" stroke="#222C33" stroke-width="0.75" stroke-miterlimit="10" stroke-linecap="round" stroke-linejoin="round"/>
<path d="M400.39 228.17H319.5H282.565H282.107" stroke="#222C33" stroke-width="0.75" stroke-miterlimit="10" stroke-linecap="round" stroke-linejoin="round"/>
<path d="M251.736 61.0488C251.736 61.2015 251.736 61.5067 251.736 61.9646C251.736 62.4224 251.736 63.0329 251.736 63.1855C251.736 66.3906 246.547 69.1378 240.137 69.1378C233.726 69.1378 228.537 66.5432 228.537 63.1855C228.537 62.8803 228.537 62.1172 228.537 61.6593C228.537 61.3541 228.537 61.2014 228.537 61.2014" stroke="#222C33" stroke-width="0.75" stroke-miterlimit="10" stroke-linecap="round" stroke-linejoin="round"/>
<path d="M251.888 61.9654C252.041 62.2706 251.888 64.1021 251.888 64.4074C251.888 66.8493 249.141 68.8334 245.02 69.7491C243.647 70.0544 241.968 70.207 240.289 70.207C238.61 70.207 236.931 70.0544 235.558 69.7491C231.437 68.8334 228.69 66.8493 228.69 64.4074C228.69 64.1021 228.537 61.9654 228.69 61.6602" stroke="#222C33" stroke-width="0.75" stroke-miterlimit="10" stroke-linecap="round" stroke-linejoin="round"/>
<path d="M236.778 55.5547C235.71 55.7073 234.794 55.8599 234.031 56.1652C230.673 57.2335 228.537 59.065 228.537 61.2017C228.537 61.507 228.537 61.9648 228.689 62.2701C229.758 65.0173 234.489 67.154 240.136 67.154C245.783 67.154 250.514 65.0173 251.583 62.2701C251.735 61.9648 251.735 61.6596 251.735 61.2017C251.735 60.4386 251.43 59.6755 250.972 59.065" stroke="#222C33" stroke-width="0.75" stroke-miterlimit="10" stroke-linecap="round" stroke-linejoin="round"/>
<path d="M165.809 15.1094C166.725 15.262 167.336 16.1777 167.793 17.5513C168.099 18.3144 168.251 19.3828 168.404 20.4512C168.709 22.8931 168.709 25.9456 168.099 29.3032C167.641 32.6609 166.725 35.5608 165.657 37.8501C165.504 38.1553 165.504 38.308 165.352 38.6132C165.046 39.3763 164.588 39.9868 164.283 40.4447C163.367 41.6657 162.452 42.2761 161.689 42.1235" stroke="#222C33" stroke-width="0.75" stroke-miterlimit="10" stroke-linecap="round" stroke-linejoin="round"/>
<path d="M162.605 14.6523C165.047 14.9576 166.115 21.3677 165.047 28.8462C163.978 36.3247 161.078 41.9717 158.636 41.6665C156.194 41.3612 155.126 34.9511 156.194 27.4726C157.263 19.9941 160.163 14.1944 162.605 14.6523Z" stroke="#222C33" stroke-width="0.75" stroke-miterlimit="10" stroke-linecap="round" stroke-linejoin="round"/>
<path d="M189.771 42.8881H190.076C190.534 42.8881 190.992 42.5828 191.449 41.9723C191.602 41.8197 191.755 41.5144 191.907 41.2092C192.976 39.5304 194.044 36.6305 194.502 33.2728C195.112 29.3047 194.96 25.947 194.044 24.1155C193.739 23.505 193.434 23.0472 192.976 22.8945" stroke="#222C33" stroke-width="0.75" stroke-miterlimit="10" stroke-linecap="round" stroke-linejoin="round"/>
<path d="M194.197 24.2676H194.046" stroke="#222C33" stroke-width="0.75" stroke-miterlimit="10" stroke-linecap="round" stroke-linejoin="round"/>
<path d="M194.96 40.9043C194.655 41.5148 194.349 41.9727 194.044 42.2779C194.044 42.4305 193.892 42.4305 193.739 42.5831C193.281 43.041 192.823 43.1936 192.518 43.041C192.06 43.041 191.755 42.5831 191.45 42.1253" stroke="#222C33" stroke-width="0.75" stroke-miterlimit="10" stroke-linecap="round" stroke-linejoin="round"/>
<path d="M195.418 23.6562C195.571 23.6562 195.724 23.6563 195.724 23.8089C196.029 23.9615 196.334 24.2667 196.487 24.572C196.487 24.7246 196.639 24.7246 196.639 24.8772C197.402 26.5561 197.708 30.0664 197.097 33.8819C196.639 36.7818 195.876 39.2237 194.96 40.9026" stroke="#222C33" stroke-width="0.75" stroke-miterlimit="10" stroke-linecap="round" stroke-linejoin="round"/>
<path d="M277.986 51.1297C278.444 51.1297 278.902 50.5192 279.36 49.4509C279.665 48.6878 279.818 47.772 279.97 46.8563C280.276 44.7196 280.123 42.7355 279.513 42.2776C279.513 42.2776 279.36 42.2776 279.36 42.125H279.207" stroke="#222C33" stroke-width="0.75" stroke-miterlimit="10" stroke-linecap="round" stroke-linejoin="round"/>
<path d="M281.039 51.5862C281.191 51.5862 281.191 51.5862 281.344 51.5862C281.649 51.4336 282.107 50.8231 282.412 49.9073C282.718 49.1442 282.87 48.3811 283.023 47.4654C283.328 45.4813 283.175 43.8025 282.718 43.192C282.565 43.0393 282.565 42.8867 282.412 42.8867" stroke="#222C33" stroke-width="0.75" stroke-miterlimit="10" stroke-linecap="round" stroke-linejoin="round"/>
<path d="M321.942 50.6719C322.247 50.8245 322.399 52.0455 322.247 53.4191C322.094 54.9453 321.484 56.0137 321.178 56.0137C320.873 56.0137 320.721 55.2505 320.873 54.1822C320.873 53.8769 320.873 53.5717 321.026 53.2665C321.178 51.8929 321.636 50.6719 321.942 50.6719Z" stroke="#222C33" stroke-width="0.75" stroke-miterlimit="10" stroke-linecap="round" stroke-linejoin="round"/>
<path d="M279.36 42.2767L196.486 24.4199" stroke="#222C33" stroke-width="0.75" stroke-miterlimit="10" stroke-linecap="round" stroke-linejoin="round"/>
<path d="M192.823 22.8945L167.793 17.5527" stroke="#222C33" stroke-width="0.75" stroke-miterlimit="10" stroke-linecap="round" stroke-linejoin="round"/>
<path d="M276.766 50.9763L242.426 47.4659L224.111 45.6345L193.739 42.582" stroke="#222C33" stroke-width="0.75" stroke-miterlimit="10" stroke-linecap="round" stroke-linejoin="round"/>
<path d="M276.766 49.1459L242.426 45.6356L224.111 43.8041L194.96 40.9043" stroke="#222C33" stroke-width="0.75" stroke-miterlimit="10" stroke-linecap="round" stroke-linejoin="round"/>
<path d="M279.055 49.4495L277.376 49.2969" stroke="#222C33" stroke-width="0.75" stroke-miterlimit="10" stroke-linecap="round" stroke-linejoin="round"/>
<path d="M189.771 42.8873L164.283 40.4453" stroke="#222C33" stroke-width="0.75" stroke-miterlimit="10" stroke-linecap="round" stroke-linejoin="round"/>
<path d="M191.603 41.2081L165.504 38.4609H165.352" stroke="#222C33" stroke-width="0.75" stroke-miterlimit="10" stroke-linecap="round" stroke-linejoin="round"/>
<path d="M158.483 41.5137L161.688 41.9715" stroke="#222C33" stroke-width="0.75" stroke-miterlimit="10" stroke-linecap="round" stroke-linejoin="round"/>
<path d="M162.605 14.6523L165.81 15.1102" stroke="#222C33" stroke-width="0.75" stroke-miterlimit="10" stroke-linecap="round" stroke-linejoin="round"/>
<path d="M163.214 28.5413C162.299 34.341 160.467 38.9197 158.941 38.767C157.415 38.4618 156.957 33.5779 157.873 27.7782C158.788 21.9786 160.62 17.3999 162.146 17.5525C163.52 17.7052 163.978 22.5891 163.214 28.5413Z" stroke="#222C33" stroke-width="0.75" stroke-miterlimit="10" stroke-linecap="round" stroke-linejoin="round"/>
<path d="M192.824 22.8945H193.129L195.418 23.6576H195.724" stroke="#222C33" stroke-width="0.75" stroke-miterlimit="10" stroke-linecap="round" stroke-linejoin="round"/>
<path d="M189.771 42.8867H190.076L192.823 43.0393" stroke="#222C33" stroke-width="0.75" stroke-miterlimit="10" stroke-linecap="round" stroke-linejoin="round"/>
<path d="M282.413 42.7352L279.513 42.2773H279.361" stroke="#222C33" stroke-width="0.75" stroke-miterlimit="10" stroke-linecap="round" stroke-linejoin="round"/>
<path d="M278.597 51.1289H278.444H277.986" stroke="#222C33" stroke-width="0.75" stroke-miterlimit="10" stroke-linecap="round" stroke-linejoin="round"/>
<path d="M321.941 50.6705L282.717 42.8867" stroke="#222C33" stroke-width="0.75" stroke-miterlimit="10" stroke-linecap="round" stroke-linejoin="round"/>
<path d="M279.665 42.2773H279.207" stroke="#222C33" stroke-width="0.75" stroke-miterlimit="10" stroke-linecap="round" stroke-linejoin="round"/>
<path d="M321.179 56.0131L281.344 51.4344L278.444 51.1292L276.766 50.9766" stroke="#222C33" stroke-width="0.75" stroke-miterlimit="10" stroke-linecap="round" stroke-linejoin="round"/>
<path d="M276.766 49.1445L277.376 49.2972L279.36 49.4498" stroke="#222C33" stroke-width="0.75" stroke-miterlimit="10" stroke-linecap="round" stroke-linejoin="round"/>
<path d="M321.179 54.3345L320.873 54.1819L282.413 49.7559" stroke="#222C33" stroke-width="0.75" stroke-miterlimit="10" stroke-linecap="round" stroke-linejoin="round"/>
<path d="M324.994 66.3914L263.64 54.1816" stroke="#222C33" stroke-width="0.75" stroke-miterlimit="10" stroke-linecap="round" stroke-linejoin="round"/>
<path d="M259.52 63.4916C257.993 62.7285 256.009 61.6601 254.178 60.5917C252.957 59.8286 251.736 59.2181 250.973 58.9129H250.82C250.057 58.9129 249.294 58.7603 248.683 58.7603C245.936 58.6077 243.189 58.455 240.594 58.3024C239.831 57.6919 238.916 57.0814 238.152 56.4709C237.695 56.1657 237.389 55.8605 236.931 55.5552C232.658 52.3501 227.927 48.382 224.264 45.6348" stroke="#222C33" stroke-width="0.75" stroke-miterlimit="10" stroke-linecap="round" stroke-linejoin="round"/>
<path d="M263.64 54.1822L242.425 47.4668" stroke="#222C33" stroke-width="0.75" stroke-miterlimit="10" stroke-linecap="round" stroke-linejoin="round"/>
<path d="M252.193 68.8337C252.041 68.6811 251.888 68.3758 251.888 67.918" stroke="#222C33" stroke-width="0.75" stroke-miterlimit="10" stroke-linecap="round" stroke-linejoin="round"/>
<path d="M263.64 54.1816C263.64 57.2341 261.808 60.5918 259.519 63.4916C256.924 66.8493 253.719 69.2912 252.346 68.986" stroke="#222C33" stroke-width="0.75" stroke-miterlimit="10" stroke-linecap="round" stroke-linejoin="round"/>
<path d="M251.736 68.07C251.736 65.0176 252.804 60.7441 254.178 60.7441" stroke="#222C33" stroke-width="0.75" stroke-miterlimit="10" stroke-linecap="round" stroke-linejoin="round"/>
<path d="M252.193 68.834L252.346 68.9866L290.959 88.0644L295.08 90.2011" stroke="#222C33" stroke-width="0.75" stroke-miterlimit="10" stroke-linecap="round" stroke-linejoin="round"/>
<path d="M290.96 88.0627C305.306 82.2631 319.348 75.0898 331.405 72.19C333.847 71.5795 336.289 71.1216 338.578 70.969C340.104 70.8164 341.63 70.8164 343.157 70.8164C345.293 70.969 347.277 71.2743 349.109 71.8848C349.719 72.0374 350.33 72.3426 350.94 72.4952" stroke="#222C33" stroke-width="0.75" stroke-miterlimit="10" stroke-linecap="round" stroke-linejoin="round"/>
<path d="M234.031 74.0215C234.031 74.7846 235.71 75.3951 237.847 75.7003C238.61 75.7003 239.221 75.853 240.136 75.853C240.747 75.853 241.205 75.853 241.815 75.853C244.41 75.7003 246.241 74.9372 246.241 74.1741" stroke="#222C33" stroke-width="0.75" stroke-miterlimit="10" stroke-linecap="round" stroke-linejoin="round"/>
<path d="M243.342 72.4961C243.19 72.4961 243.19 72.4961 243.342 72.4961Z" stroke="#222C33" stroke-width="0.75" stroke-miterlimit="10" stroke-linecap="round" stroke-linejoin="round"/>
<path d="M235.405 69.748C234.489 70.0533 234.031 70.5112 234.031 70.8164C234.031 71.4269 235.252 72.0374 237.084 72.3426C238 72.4952 239.068 72.6479 240.136 72.6479C241.205 72.6479 242.273 72.4952 243.189 72.3426C245.02 72.0374 246.241 71.4269 246.241 70.8164C246.241 70.3585 245.783 70.0533 244.868 69.748" stroke="#222C33" stroke-width="0.75" stroke-miterlimit="10" stroke-linecap="round" stroke-linejoin="round"/>
<path d="M246.241 74.0215V70.8164" stroke="#222C33" stroke-width="0.75" stroke-miterlimit="10" stroke-linecap="round" stroke-linejoin="round"/>
<path d="M234.031 74.0215V70.8164" stroke="#222C33" stroke-width="0.75" stroke-miterlimit="10" stroke-linecap="round" stroke-linejoin="round"/>
<path d="M238 75.7012V79.5167V228.171V258.543" stroke="#222C33" stroke-width="0.75" stroke-miterlimit="10" stroke-linecap="round" stroke-linejoin="round"/>
<path d="M241.815 258.543V78.1431V75.7012" stroke="#222C33" stroke-width="0.75" stroke-miterlimit="10" stroke-linecap="round" stroke-linejoin="round"/>
<path d="M238 79.5176L197.555 226.645" stroke="#222C33" stroke-width="0.75" stroke-miterlimit="10" stroke-linecap="round" stroke-linejoin="round"/>
<path d="M234.031 74.0215L194.96 226.339" stroke="#222C33" stroke-width="0.75" stroke-miterlimit="10" stroke-linecap="round" stroke-linejoin="round"/>
<path d="M246.241 74.0215L269.592 156.59L288.212 222.981" stroke="#222C33" stroke-width="0.75" stroke-miterlimit="10" stroke-linecap="round" stroke-linejoin="round"/>
<path d="M285.618 224.355L241.816 78.1426" stroke="#222C33" stroke-width="0.75" stroke-miterlimit="10" stroke-linecap="round" stroke-linejoin="round"/>
<path d="M370.017 161.933L371.696 158.118C371.696 158.118 363.149 151.555 351.703 146.061" stroke="#222C33" stroke-width="0.75" stroke-miterlimit="10" stroke-linecap="round" stroke-linejoin="round"/>
<path d="M238 228.17H197.555H194.961H25.2446" stroke="#222C33" stroke-width="0.75" stroke-miterlimit="10" stroke-linecap="round" stroke-linejoin="round"/>
<path d="M228.537 258.543H238H241.815H251.431" stroke="#222C33" stroke-width="0.75" stroke-miterlimit="10" stroke-linecap="round" stroke-linejoin="round"/>
<path d="M234.031 56.166L240.136 61.5078L251.735 61.0499" stroke="#222C33" stroke-width="0.75" stroke-miterlimit="10" stroke-linecap="round" stroke-linejoin="round"/>
<path d="M71.0312 97.8323L68.8945 92.3379" stroke="#222C33" stroke-width="0.75" stroke-miterlimit="10" stroke-linecap="round" stroke-linejoin="round"/>
<path d="M60.1943 68.3753L58.2102 62.8809" stroke="#222C33" stroke-width="0.75" stroke-miterlimit="10" stroke-linecap="round" stroke-linejoin="round"/>
<path d="M76.5254 94.6275L72.7098 90.0488" stroke="#222C33" stroke-width="0.75" stroke-miterlimit="10" stroke-linecap="round" stroke-linejoin="round"/>
<path d="M56.3789 70.512L52.5633 66.0859" stroke="#222C33" stroke-width="0.75" stroke-miterlimit="10" stroke-linecap="round" stroke-linejoin="round"/>
<path d="M80.6465 89.5893L75.6099 86.6895" stroke="#222C33" stroke-width="0.75" stroke-miterlimit="10" stroke-linecap="round" stroke-linejoin="round"/>
<path d="M53.4795 73.8705L48.443 70.9707" stroke="#222C33" stroke-width="0.75" stroke-miterlimit="10" stroke-linecap="round" stroke-linejoin="round"/>
<path d="M82.9355 83.486L77.1359 82.5703" stroke="#222C33" stroke-width="0.75" stroke-miterlimit="10" stroke-linecap="round" stroke-linejoin="round"/>
<path d="M51.9531 78.1426L46.3061 77.0742" stroke="#222C33" stroke-width="0.75" stroke-miterlimit="10" stroke-linecap="round" stroke-linejoin="round"/>
<path d="M82.9355 77.0742L77.1359 78.1426" stroke="#222C33" stroke-width="0.75" stroke-miterlimit="10" stroke-linecap="round" stroke-linejoin="round"/>
<path d="M51.9531 82.5703L46.3061 83.486" stroke="#222C33" stroke-width="0.75" stroke-miterlimit="10" stroke-linecap="round" stroke-linejoin="round"/>
<path d="M80.6465 70.9707L75.6099 73.8705" stroke="#222C33" stroke-width="0.75" stroke-miterlimit="10" stroke-linecap="round" stroke-linejoin="round"/>
<path d="M53.4795 86.6895L48.443 89.5893" stroke="#222C33" stroke-width="0.75" stroke-miterlimit="10" stroke-linecap="round" stroke-linejoin="round"/>
<path d="M76.5254 66.0859L72.7098 70.512" stroke="#222C33" stroke-width="0.75" stroke-miterlimit="10" stroke-linecap="round" stroke-linejoin="round"/>
<path d="M56.3789 90.0488L52.5633 94.6275" stroke="#222C33" stroke-width="0.75" stroke-miterlimit="10" stroke-linecap="round" stroke-linejoin="round"/>
<path d="M71.0312 62.8809L68.8945 68.3753" stroke="#222C33" stroke-width="0.75" stroke-miterlimit="10" stroke-linecap="round" stroke-linejoin="round"/>
<path d="M60.1943 92.3379L58.2102 97.8323" stroke="#222C33" stroke-width="0.75" stroke-miterlimit="10" stroke-linecap="round" stroke-linejoin="round"/>
<path d="M64.6211 61.6602V67.6124" stroke="#222C33" stroke-width="0.75" stroke-miterlimit="10" stroke-linecap="round" stroke-linejoin="round"/>
<path d="M64.6211 93.0996V98.8993" stroke="#222C33" stroke-width="0.75" stroke-miterlimit="10" stroke-linecap="round" stroke-linejoin="round"/>
<path fill-rule="evenodd" clip-rule="evenodd" d="M140.626 165.748C141.847 165.748 142.915 165.748 144.136 165.901C158.483 167.58 169.472 179.789 169.472 194.441C169.472 198.257 168.709 201.614 167.488 204.514C163.214 214.435 153.446 220.692 146.884 225.881C143.221 228.781 138.184 228.781 134.521 225.881C129.943 222.218 123.685 218.097 118.801 212.45C116.817 210.161 115.138 207.567 113.917 204.514C112.696 201.462 111.933 198.104 111.933 194.288C111.78 178.721 124.753 165.748 140.626 165.748ZM140.779 211.84C148.715 211.84 155.278 206.651 157.567 199.478C158.025 197.799 158.33 196.12 158.33 194.441C158.33 184.826 150.547 176.889 140.779 176.889C139.863 176.889 138.947 177.042 138.031 177.042C129.637 178.416 123.227 185.589 123.227 194.288C123.38 203.904 131.163 211.84 140.779 211.84Z" fill="#158864" stroke="#222C33" stroke-width="0.75" stroke-miterlimit="10" stroke-linecap="round" stroke-linejoin="round"/>
<path d="M117.276 204.668H49.3586C48.4429 204.668 47.8324 205.278 47.8324 206.194V234.429C47.8324 235.345 48.4429 235.956 49.3586 235.956H117.276C118.191 235.956 118.802 235.345 118.802 234.429V206.194C118.802 205.431 118.039 204.668 117.276 204.668Z" fill="white" stroke="#222C33" stroke-width="0.75" stroke-miterlimit="10" stroke-linecap="round" stroke-linejoin="round"/>
<path d="M72.2514 216.267C71.4928 216.267 70.8778 215.652 70.8778 214.893C70.8778 214.135 71.4928 213.52 72.2514 213.52C73.01 213.52 73.625 214.135 73.625 214.893C73.625 215.652 73.01 216.267 72.2514 216.267Z" fill="white" stroke="#222C33" stroke-width="0.75" stroke-miterlimit="10" stroke-linecap="round" stroke-linejoin="round"/>
<path d="M72.2514 221.761C71.4928 221.761 70.8778 221.146 70.8778 220.387C70.8778 219.629 71.4928 219.014 72.2514 219.014C73.01 219.014 73.625 219.629 73.625 220.387C73.625 221.146 73.01 221.761 72.2514 221.761Z" fill="white" stroke="#222C33" stroke-width="0.75" stroke-miterlimit="10" stroke-linecap="round" stroke-linejoin="round"/>
<path d="M64.6205 216.267C63.8619 216.267 63.2469 215.652 63.2469 214.893C63.2469 214.135 63.8619 213.52 64.6205 213.52C65.3792 213.52 65.9941 214.135 65.9941 214.893C65.9941 215.652 65.3792 216.267 64.6205 216.267Z" fill="white" stroke="#222C33" stroke-width="0.75" stroke-miterlimit="10" stroke-linecap="round" stroke-linejoin="round"/>
<path d="M64.6205 221.761C63.8619 221.761 63.2469 221.146 63.2469 220.387C63.2469 219.629 63.8619 219.014 64.6205 219.014C65.3792 219.014 65.9941 219.629 65.9941 220.387C65.9941 221.146 65.3792 221.761 64.6205 221.761Z" fill="white" stroke="#222C33" stroke-width="0.75" stroke-miterlimit="10" stroke-linecap="round" stroke-linejoin="round"/>
<path d="M56.9897 216.267C56.2311 216.267 55.6161 215.652 55.6161 214.893C55.6161 214.135 56.2311 213.52 56.9897 213.52C57.7483 213.52 58.3633 214.135 58.3633 214.893C58.3633 215.652 57.7483 216.267 56.9897 216.267Z" fill="white" stroke="#222C33" stroke-width="0.75" stroke-miterlimit="10" stroke-linecap="round" stroke-linejoin="round"/>
<path d="M56.9897 221.761C56.2311 221.761 55.6161 221.146 55.6161 220.387C55.6161 219.629 56.2311 219.014 56.9897 219.014C57.7483 219.014 58.3633 219.629 58.3633 220.387C58.3633 221.146 57.7483 221.761 56.9897 221.761Z" fill="white" stroke="#222C33" stroke-width="0.75" stroke-miterlimit="10" stroke-linecap="round" stroke-linejoin="round"/>
<path d="M80.0356 216.267C79.2769 216.267 78.662 215.652 78.662 214.893C78.662 214.135 79.2769 213.52 80.0356 213.52C80.7942 213.52 81.4092 214.135 81.4092 214.893C81.4092 215.652 80.7942 216.267 80.0356 216.267Z" fill="white" stroke="#222C33" stroke-width="0.75" stroke-miterlimit="10" stroke-linecap="round" stroke-linejoin="round"/>
<path d="M80.0356 221.761C79.2769 221.761 78.662 221.146 78.662 220.387C78.662 219.629 79.2769 219.014 80.0356 219.014C80.7942 219.014 81.4092 219.629 81.4092 220.387C81.4092 221.146 80.7942 221.761 80.0356 221.761Z" fill="white" stroke="#222C33" stroke-width="0.75" stroke-miterlimit="10" stroke-linecap="round" stroke-linejoin="round"/>
<path d="M80.0356 227.407C79.2769 227.407 78.662 226.792 78.662 226.034C78.662 225.275 79.2769 224.66 80.0356 224.66C80.7942 224.66 81.4092 225.275 81.4092 226.034C81.4092 226.792 80.7942 227.407 80.0356 227.407Z" fill="white" stroke="#222C33" stroke-width="0.75" stroke-miterlimit="10" stroke-linecap="round" stroke-linejoin="round"/>
<path d="M103.997 226.799C100.457 226.799 97.5869 223.929 97.5869 220.389C97.5869 216.848 100.457 213.979 103.997 213.979C107.537 213.979 110.407 216.848 110.407 220.389C110.407 223.929 107.537 226.799 103.997 226.799Z" fill="white" stroke="#158864" stroke-width="3" stroke-miterlimit="10" stroke-linecap="round" stroke-linejoin="round"/>
<path d="M13.7979 68.8339C6.71747 68.8339 0.977621 63.0941 0.977621 56.0136C0.977621 48.9332 6.71747 43.1934 13.7979 43.1934C20.8783 43.1934 26.6182 48.9332 26.6182 56.0136C26.6182 63.0941 20.8783 68.8339 13.7979 68.8339Z" fill="white" stroke="#222C33" stroke-width="0.75" stroke-miterlimit="10" stroke-linecap="round" stroke-linejoin="round"/>
<path d="M9.82929 56.0145L17.7656 51.2832V60.8984L9.82929 56.0145Z" fill="#158864" stroke="#222C33" stroke-width="0.75" stroke-miterlimit="10" stroke-linecap="round" stroke-linejoin="round"/>
<path d="M82.9352 0.611328H110.56C112.391 0.611328 113.612 1.83231 113.612 3.66377V43.0403C113.612 44.8718 112.391 46.0928 110.56 46.0928H71.1833C69.3518 46.0928 68.1309 44.8718 68.1309 43.0403V15.4157L82.9352 0.611328Z" fill="white" stroke="#222C33" stroke-width="0.75" stroke-miterlimit="10" stroke-linecap="round" stroke-linejoin="round"/>
<path d="M68.1312 15.4157L82.9355 0.611328V12.3632C82.9355 14.1947 81.7146 15.4157 79.8831 15.4157H68.1312Z" fill="#FDCA0B" stroke="#222C33" stroke-width="0.75" stroke-miterlimit="10" stroke-linecap="round" stroke-linejoin="round"/>
<path d="M105.982 24.8789H78.6622C77.8991 24.8789 77.136 25.4894 77.136 26.4051C77.136 27.1682 77.7465 27.9314 78.6622 27.9314H105.982C106.745 27.9314 107.508 27.3209 107.508 26.4051C107.508 25.4894 106.897 24.8789 105.982 24.8789Z" fill="#FDCA0B" stroke="#222C33" stroke-width="0.75" stroke-miterlimit="10" stroke-linecap="round" stroke-linejoin="round"/>
<path d="M105.982 18.7734H93.9244C93.1613 18.7734 92.3982 19.3839 92.3982 20.2997C92.3982 21.0628 93.0087 21.8259 93.9244 21.8259H105.982C106.745 21.8259 107.508 21.2154 107.508 20.2997C107.508 19.3839 106.897 18.7734 105.982 18.7734Z" fill="#FDCA0B" stroke="#222C33" stroke-width="0.75" stroke-miterlimit="10" stroke-linecap="round" stroke-linejoin="round"/>
<path d="M105.982 30.8301H78.6622C77.8991 30.8301 77.136 31.4406 77.136 32.3563C77.136 33.1194 77.7465 33.8825 78.6622 33.8825H105.982C106.745 33.8825 107.508 33.272 107.508 32.3563C107.508 31.5932 106.897 30.8301 105.982 30.8301Z" fill="#FDCA0B" stroke="#222C33" stroke-width="0.75" stroke-miterlimit="10" stroke-linecap="round" stroke-linejoin="round"/>
</g>
<defs>
<clipPath id="clip0_3025_62626">
<rect width="400.633" height="259" fill="white" transform="matrix(-1 0 0 1 401 0)"/>
</clipPath>
</defs>
</svg>
